{"glyphs":{":":{"x_min":0,"x_max":263,"ha":263,"o":"m 215 394 q 213 380 209 371 q 206 362 200 357 q 194 352 185 349 q 177 347 165 347 q 152 347 145 349 q 137 352 134 357 q 130 362 130 371 q 129 380 132 394 q 135 407 138 416 q 142 425 147 431 q 153 436 161 438 q 170 441 182 441 q 194 441 202 438 q 210 436 214 431 q 218 425 218 416 q 218 407 215 394 z m 145 43 q 143 30 139 21 q 136 12 130 7 q 124 1 115 -1 q 106 -3 94 -3 q 82 -3 74 -1 q 66 0 63 6 q 59 11 59 20 q 59 29 62 43 q 64 57 68 66 q 71 75 77 80 q 83 85 91 88 q 100 90 111 90 q 124 90 132 88 q 140 85 143 80 q 147 75 147 66 q 147 57 145 43 z"},"$":{"x_min":0,"x_max":507,"ha":507,"o":""},"?":{"x_min":0,"x_max":463,"ha":463,"o":"m 468 512 q 468 472 456 434 q 443 397 417 368 q 392 338 352 320 q 312 301 256 299 l 227 168 q 226 162 219 159 q 212 156 197 156 q 190 156 185 156 q 180 157 177 159 q 174 161 173 163 q 172 166 173 168 l 199 315 q 201 324 204 330 q 208 335 213 339 q 218 343 224 344 q 230 346 239 346 l 242 346 q 288 346 319 360 q 351 375 371 397 q 391 420 399 449 q 408 478 408 506 q 408 530 402 550 q 395 571 382 586 q 368 601 348 609 q 327 617 299 617 q 268 617 243 610 q 218 603 200 594 q 182 585 170 578 q 158 571 152 571 q 147 571 145 575 q 143 579 143 589 q 143 594 144 599 q 145 604 146 608 q 147 613 150 617 q 152 621 156 625 q 162 631 178 638 q 193 646 214 653 q 235 659 258 664 q 281 668 303 668 q 332 668 355 663 q 379 657 397 647 q 416 637 429 623 q 442 609 451 592 q 460 574 464 554 q 468 534 468 512 z m 221 66 q 221 60 219 52 q 218 43 216 35 q 214 27 211 20 q 208 12 204 8 q 197 2 189 -1 q 180 -3 167 -3 q 156 -3 149 -2 q 143 0 139 2 q 135 5 134 10 q 132 15 132 21 q 132 26 133 34 q 134 42 136 51 q 139 60 142 67 q 145 75 149 80 q 156 86 164 88 q 172 90 186 90 q 197 90 204 89 q 210 87 214 84 q 218 81 219 76 q 221 71 221 66 z"},"<":{"x_min":0,"x_max":498,"ha":498,"o":"m 504 500 q 504 490 502 481 q 500 472 497 465 q 494 458 489 452 q 483 446 477 443 l 111 279 l 412 114 q 423 107 423 98 q 423 92 422 86 q 421 80 420 74 q 419 68 417 64 q 415 59 413 56 q 410 53 407 52 q 404 51 401 53 l 49 251 q 46 253 45 257 q 43 261 43 269 q 43 273 44 280 q 45 286 48 292 q 50 298 53 304 q 57 309 62 312 l 488 508 q 497 512 500 510 q 504 507 504 500 z"},"'":{"x_min":0,"x_max":214,"ha":214,"o":"m 172 438 q 171 432 165 429 q 159 425 146 425 q 139 425 135 426 q 130 427 128 429 q 126 430 125 433 q 125 435 125 438 l 161 669 q 162 675 171 678 q 181 682 198 682 q 217 682 224 678 q 231 675 230 669 z"},"=":{"x_min":0,"x_max":498,"ha":498,"o":"m 442 200 q 442 197 441 193 q 441 189 440 185 q 439 181 437 177 q 436 172 433 169 q 430 166 427 163 q 423 161 419 161 l 53 161 q 47 161 44 165 q 40 169 40 178 q 40 183 41 190 q 42 196 45 202 q 48 208 52 212 q 57 216 63 216 l 430 216 q 436 216 439 212 q 442 208 442 200 z m 479 386 q 479 383 479 379 q 478 375 477 371 q 476 367 474 362 q 473 358 470 354 q 467 351 464 349 q 460 347 456 347 l 90 347 q 84 347 81 351 q 77 355 77 364 q 77 369 78 375 q 80 382 82 388 q 85 394 89 398 q 94 402 101 402 l 467 402 q 473 402 476 397 q 479 393 479 386 z"},"a":{"x_min":0,"x_max":507,"ha":507,"o":"m 381 10 q 380 3 374 0 q 367 -3 352 -3 q 345 -3 340 -2 q 335 -1 333 0 q 330 1 329 4 q 328 6 329 10 l 347 101 q 340 84 324 65 q 307 46 284 30 q 261 14 232 3 q 204 -8 175 -8 q 135 -8 110 5 q 84 19 70 41 q 55 63 50 91 q 44 119 44 146 q 44 172 49 206 q 54 240 65 276 q 77 312 94 346 q 112 381 137 408 q 163 436 197 453 q 231 470 274 470 q 320 470 351 452 q 381 434 406 404 l 417 452 q 418 458 425 461 q 432 464 446 464 q 454 464 458 464 q 463 463 466 461 q 469 459 469 457 q 470 455 470 452 z m 391 345 q 365 382 335 401 q 306 420 269 420 q 240 420 216 406 q 192 392 174 369 q 156 347 143 318 q 130 289 122 259 q 114 229 110 200 q 106 171 106 149 q 106 131 109 112 q 112 93 120 77 q 129 62 144 52 q 159 42 184 42 q 213 42 243 57 q 272 73 298 102 q 324 130 344 170 q 363 209 373 256 z"},"L":{"x_min":0,"x_max":419,"ha":419,"o":"m 370 40 q 370 38 370 34 q 369 30 368 25 q 367 21 366 16 q 364 12 362 8 q 359 4 356 2 q 353 0 349 0 l 74 0 q 70 0 65 1 q 61 3 57 7 q 54 10 52 16 q 51 22 53 31 l 171 622 q 171 625 174 627 q 176 630 180 631 q 184 633 189 634 q 195 635 204 635 q 212 635 218 634 q 223 633 226 631 q 229 630 230 627 q 231 625 230 622 l 117 54 l 359 54 q 365 54 367 51 q 370 47 370 40 z"},"3":{"x_min":0,"x_max":507,"ha":507,"o":"m 427 199 q 427 175 421 150 q 415 125 402 102 q 389 79 369 59 q 349 39 322 24 q 295 9 260 0 q 226 -8 184 -8 q 159 -8 137 -5 q 115 -2 96 3 q 78 9 62 16 q 46 23 34 32 q 27 36 24 42 q 21 47 21 53 q 21 56 22 60 q 22 63 23 68 q 23 73 25 78 q 26 83 28 86 q 30 90 32 93 q 35 95 39 95 q 42 95 54 87 q 66 79 86 69 q 105 60 131 52 q 158 43 191 43 q 236 43 268 58 q 301 72 322 94 q 343 116 354 143 q 364 169 364 195 q 364 217 356 236 q 348 255 332 269 q 315 283 289 291 q 263 299 227 299 l 155 299 q 148 299 144 303 q 140 307 140 316 q 140 319 141 323 q 142 328 143 331 q 144 335 146 338 q 148 342 151 344 q 153 347 157 349 q 160 350 165 350 l 220 350 q 258 350 291 362 q 324 375 348 396 q 372 417 385 445 q 398 473 398 505 q 398 544 377 566 q 355 588 306 588 q 277 588 250 579 q 224 570 203 560 q 182 549 167 540 q 153 531 147 531 q 144 531 141 535 q 139 538 139 545 q 139 548 140 554 q 141 560 142 566 q 144 572 147 578 q 150 584 155 588 q 160 593 175 602 q 190 611 212 619 q 234 628 261 634 q 288 640 317 640 q 353 640 380 631 q 407 623 425 606 q 443 589 452 565 q 461 542 461 512 q 461 477 449 446 q 438 416 417 392 q 396 369 368 353 q 339 336 306 330 l 306 329 q 339 325 362 313 q 385 301 400 284 q 414 266 421 244 q 427 222 427 199 z"},";":{"x_min":0,"x_max":263,"ha":263,"o":"m 215 394 q 212 380 209 371 q 206 362 200 357 q 194 352 186 349 q 177 347 164 347 q 152 347 144 349 q 137 351 133 356 q 129 361 129 370 q 129 379 132 394 q 136 409 140 419 q 144 428 149 433 q 155 438 163 439 q 171 441 184 441 q 197 441 205 438 q 212 436 216 430 q 219 424 219 415 q 218 406 215 394 z m 150 71 q 150 48 139 24 q 128 0 108 -25 l 19 -129 q 16 -132 13 -135 q 10 -137 5 -138 q 1 -140 -4 -140 q -10 -141 -17 -141 q -23 -141 -27 -140 q -31 -139 -32 -137 q -33 -136 -32 -133 q -32 -129 -29 -125 l 66 9 l 76 59 q 78 70 81 76 q 84 83 89 86 q 93 90 101 91 q 108 92 119 92 q 128 92 134 91 q 140 90 144 88 q 147 85 149 81 q 150 77 150 71 z"},"J":{"x_min":0,"x_max":312,"ha":312,"o":"m 206 144 q 199 112 188 84 q 177 57 159 36 q 142 16 116 4 q 91 -8 56 -8 q 33 -8 15 -4 q -3 0 -16 6 q -28 12 -31 17 q -34 22 -34 28 q -34 31 -34 35 q -33 40 -32 44 q -31 48 -30 53 q -28 58 -26 61 q -24 64 -21 67 q -19 69 -16 69 q -11 69 -5 65 q 0 61 9 57 q 17 52 28 48 q 40 44 56 44 q 77 44 91 50 q 105 55 116 68 q 126 81 133 101 q 141 121 146 151 l 241 622 q 241 625 243 627 q 246 630 250 631 q 253 633 259 634 q 265 635 273 635 q 281 635 286 634 q 292 633 295 632 q 298 630 300 628 q 301 625 301 622 z"},"V":{"x_min":0,"x_max":554,"ha":554,"o":"m 271 11 q 269 7 266 4 q 262 1 257 0 q 252 -1 246 -2 q 239 -3 230 -3 q 222 -3 215 -2 q 209 -1 205 0 q 201 1 198 4 q 196 7 195 11 l 99 612 q 98 619 98 624 q 98 628 101 631 q 104 633 110 634 q 116 635 125 635 q 135 635 141 634 q 147 633 151 632 q 155 630 156 628 q 158 625 159 622 l 243 66 l 244 66 l 545 622 q 547 625 550 628 q 552 630 556 632 q 560 633 567 634 q 573 635 583 635 q 594 635 601 634 q 607 633 610 630 q 613 628 613 624 q 612 619 608 612 z"},"\"":{"x_min":0,"x_max":380,"ha":380,"o":"m 338 438 q 338 435 336 433 q 334 430 331 429 q 328 427 323 426 q 319 425 312 425 q 306 425 302 426 q 297 427 295 429 q 292 430 292 433 q 291 435 292 438 l 328 669 q 328 672 331 674 q 333 677 338 678 q 342 680 349 681 q 356 682 365 682 q 384 682 391 678 q 398 675 396 669 z m 172 438 q 171 435 170 433 q 168 430 165 429 q 162 427 157 426 q 152 425 146 425 q 139 425 135 426 q 130 427 128 429 q 126 430 125 433 q 125 435 125 438 l 161 669 q 162 672 164 674 q 167 677 171 678 q 176 680 183 681 q 189 682 198 682 q 217 682 224 678 q 231 675 230 669 z"},"7":{"x_min":0,"x_max":507,"ha":507,"o":"m 533 616 q 533 610 532 604 q 531 598 530 591 q 528 584 525 577 q 521 570 517 563 l 169 16 q 166 10 162 6 q 158 2 153 0 q 147 -1 141 -2 q 134 -3 125 -3 q 114 -3 108 -1 q 102 0 99 3 q 97 6 98 10 q 100 14 103 19 l 462 579 l 140 579 q 133 579 130 583 q 127 588 127 595 q 127 597 127 601 q 128 605 129 609 q 130 613 132 617 q 134 622 136 625 q 139 628 143 630 q 146 632 151 632 l 515 632 q 528 632 531 627 q 533 622 533 616 z"},"S":{"x_min":0,"x_max":445,"ha":445,"o":"m 440 584 q 440 581 439 577 q 439 573 438 569 q 437 564 436 560 q 434 556 432 553 q 430 550 427 548 q 424 546 421 546 q 416 546 407 552 q 397 559 383 566 q 368 573 347 580 q 327 586 299 586 q 267 586 242 576 q 218 566 201 549 q 184 532 175 510 q 167 487 167 463 q 167 440 176 422 q 186 405 202 391 q 218 376 238 364 q 258 352 280 339 q 301 327 321 313 q 342 299 358 281 q 374 262 383 239 q 393 215 393 184 q 393 145 377 110 q 361 75 331 49 q 301 22 258 7 q 216 -8 163 -8 q 135 -8 110 -3 q 84 2 64 10 q 44 17 30 25 q 16 33 10 39 q 3 45 3 56 q 3 59 4 63 q 4 67 6 72 q 7 76 8 81 q 10 85 12 89 q 14 92 17 94 q 20 97 23 97 q 31 97 43 89 q 55 81 73 72 q 90 62 114 55 q 138 47 170 47 q 208 47 237 58 q 267 68 287 87 q 308 105 319 130 q 330 154 330 182 q 330 206 320 224 q 310 242 294 256 q 279 270 259 282 q 238 294 217 306 q 196 319 176 333 q 156 347 140 365 q 125 383 115 407 q 105 431 105 462 q 105 498 119 530 q 132 562 158 586 q 184 611 221 625 q 259 640 306 640 q 329 640 350 636 q 371 632 387 627 q 404 621 416 615 q 427 608 432 604 q 436 600 438 595 q 440 591 440 584 z"},"}":{"x_min":0,"x_max":299,"ha":299,"o":"m -11 -139 q -11 -134 -10 -128 q -8 -123 -6 -118 q -3 -114 0 -111 q 4 -108 10 -108 l 25 -108 q 39 -108 50 -104 q 60 -99 69 -86 q 77 -74 84 -51 q 91 -28 99 8 l 122 127 q 127 155 136 180 q 144 206 157 226 q 170 246 188 259 q 206 272 230 277 q 213 280 202 291 q 192 301 186 314 q 180 328 178 342 q 176 357 176 369 q 176 383 177 397 q 178 410 181 423 l 203 529 q 207 551 209 567 q 211 583 211 596 q 211 618 203 626 q 195 635 181 635 l 158 635 q 151 635 149 639 q 146 644 146 649 q 146 652 147 656 q 148 659 149 662 q 150 666 152 669 q 154 672 157 674 q 158 676 160 677 q 162 678 166 678 q 169 679 174 679 q 180 680 188 680 q 210 680 225 674 q 240 668 248 658 q 257 648 260 634 q 264 620 264 602 q 264 590 262 570 q 260 550 254 523 l 232 417 q 230 408 229 394 q 227 380 227 370 q 227 355 230 342 q 233 329 239 319 q 246 309 256 303 q 266 296 281 295 q 287 294 289 292 q 292 290 292 283 q 292 280 291 277 q 291 273 290 271 q 289 268 287 265 q 286 262 284 261 q 280 257 274 256 q 267 254 259 252 q 250 250 240 246 q 229 241 218 230 q 203 214 192 189 q 182 164 176 133 l 147 -9 q 140 -45 131 -72 q 122 -99 107 -117 q 93 -135 73 -144 q 52 -153 23 -153 q 16 -153 11 -153 q 6 -152 2 -152 q -2 -151 -4 -151 q -7 -150 -8 -148 q -9 -147 -10 -145 q -11 -143 -11 -139 z"},"Z":{"x_min":0,"x_max":463,"ha":463,"o":"m 488 632 q 496 632 500 627 q 504 622 504 615 q 504 610 503 599 q 501 588 499 582 q 498 579 497 576 q 495 573 492 569 q 490 565 485 560 q 481 554 474 546 l 62 53 l 391 53 q 397 53 400 50 q 402 46 402 39 q 402 37 402 33 q 401 29 401 24 q 400 20 398 16 q 397 11 395 8 q 393 4 389 2 q 386 0 381 0 l 7 0 q -1 0 -6 5 q -11 11 -11 18 q -11 21 -10 25 q -10 29 -9 34 q -7 39 -6 44 q -5 49 -3 52 q -2 54 -1 57 q 1 61 4 64 q 7 68 11 74 q 15 79 21 86 l 434 579 l 122 579 q 111 579 111 594 q 111 596 112 600 q 112 604 113 608 q 114 612 116 617 q 117 621 120 624 q 122 627 125 630 q 129 632 133 632 z"},"x":{"x_min":0,"x_max":418,"ha":418,"o":"m 245 233 l 350 19 q 353 13 353 9 q 352 5 348 2 q 344 0 337 -2 q 330 -3 319 -3 q 309 -3 303 -2 q 298 -1 294 0 q 291 1 290 4 q 289 6 287 9 l 203 193 l 49 9 q 46 6 43 4 q 41 1 36 0 q 32 -1 25 -2 q 19 -3 9 -3 q -1 -3 -8 -2 q -15 0 -18 2 q -21 5 -20 9 q -20 13 -15 19 l 177 236 l 77 443 q 74 449 74 453 q 75 457 78 460 q 82 462 88 463 q 95 464 106 464 q 116 464 122 464 q 128 463 131 461 q 134 460 136 458 q 137 456 139 453 l 218 279 l 365 453 q 368 456 370 458 q 373 460 377 461 q 382 463 388 464 q 394 464 404 464 q 414 464 421 463 q 428 462 432 460 q 435 458 434 453 q 433 449 427 443 z"},")":{"x_min":0,"x_max":299,"ha":299,"o":"m -9 -150 q 45 -71 83 7 q 121 84 144 159 q 168 234 179 304 q 190 374 190 438 q 190 466 188 496 q 187 526 183 556 q 179 587 174 617 q 168 647 160 674 q 159 679 159 682 q 159 685 161 687 q 164 689 168 690 q 173 691 182 691 q 188 691 192 691 q 197 690 200 689 q 203 688 205 687 q 207 685 208 683 q 226 627 238 564 q 249 500 249 425 q 249 361 239 293 q 228 225 204 152 q 180 80 141 2 q 102 -75 45 -156 q 43 -158 41 -160 q 38 -162 34 -164 q 30 -165 24 -166 q 18 -167 10 -167 q 2 -167 -2 -165 q -7 -164 -9 -162 q -12 -160 -12 -157 q -12 -154 -9 -150 z"},"&":{"x_min":0,"x_max":670,"ha":670,"o":"m 429 71 q 381 35 327 14 q 273 -7 216 -7 q 174 -7 142 3 q 110 13 88 31 q 66 49 55 75 q 43 101 43 131 q 43 161 53 191 q 63 221 85 249 q 106 278 140 304 q 173 331 220 355 q 206 382 197 404 q 188 426 183 444 q 178 462 177 476 q 175 490 175 500 q 175 517 179 535 q 183 553 192 571 q 201 588 216 604 q 230 621 251 633 q 272 646 301 653 q 329 660 365 660 q 406 660 434 651 q 462 641 479 626 q 496 611 503 592 q 510 574 510 556 q 510 527 500 500 q 491 474 467 448 q 442 422 401 395 q 360 368 296 338 q 313 309 330 284 q 346 259 363 237 q 380 214 398 193 q 416 171 437 147 q 468 183 488 220 q 509 257 517 288 q 525 318 526 327 q 527 336 529 340 q 531 343 535 345 q 539 347 544 348 q 550 349 559 349 q 576 349 581 346 q 586 344 586 339 q 586 334 582 313 q 577 292 569 267 q 561 242 548 216 q 534 189 516 162 q 497 135 473 110 q 509 76 531 61 q 554 45 570 45 q 581 45 584 42 q 587 40 586 34 q 586 31 586 26 q 585 21 583 16 q 582 11 580 6 q 578 1 575 -1 q 572 -4 565 -6 q 558 -7 551 -7 q 542 -7 530 -3 q 519 0 504 10 q 490 19 471 34 q 453 49 429 71 z m 272 382 q 328 408 362 430 q 396 453 415 473 q 434 493 441 511 q 447 530 447 549 q 447 557 444 568 q 440 578 431 587 q 421 597 405 603 q 388 609 361 609 q 325 609 301 599 q 277 588 262 572 q 248 556 242 538 q 236 520 236 505 q 236 495 238 483 q 239 471 243 456 q 247 441 254 423 q 261 405 272 382 z m 244 311 q 211 294 186 276 q 161 257 143 236 q 125 215 116 191 q 107 167 107 139 q 107 121 113 104 q 118 87 132 74 q 146 61 168 52 q 191 44 226 44 q 248 44 271 49 q 293 54 315 62 q 336 71 356 83 q 376 94 393 108 q 371 133 352 156 q 333 180 314 205 q 296 229 279 255 q 261 281 244 311 z m 0 632 z"},"_":{"x_min":0,"x_max":498,"ha":498,"o":"m 425 -143 q 425 -146 424 -149 q 424 -153 423 -157 q 422 -161 420 -164 q 418 -168 416 -171 q 414 -174 411 -176 q 408 -178 404 -178 l -70 -178 q -75 -178 -77 -174 q -80 -170 -80 -164 q -80 -162 -79 -158 q -79 -154 -78 -150 q -77 -146 -75 -142 q -74 -138 -72 -135 q -69 -131 -66 -129 q -63 -127 -60 -127 l 414 -127 q 419 -127 422 -132 q 425 -136 425 -143 z"},"v":{"x_min":0,"x_max":433,"ha":433,"o":"m 437 456 q 437 451 435 447 q 434 443 433 440 q 414 387 391 331 q 368 276 340 221 q 312 166 278 113 q 244 60 203 10 q 200 6 197 3 q 193 1 189 0 q 186 -2 180 -2 q 175 -3 168 -3 q 160 -3 154 -2 q 148 -1 145 0 q 142 1 140 4 q 138 6 138 10 l 65 440 q 64 444 64 447 q 64 449 64 452 q 64 456 66 458 q 68 461 71 462 q 74 463 79 464 q 84 464 92 464 q 102 464 107 464 q 113 463 116 461 q 119 460 120 458 q 122 455 122 452 l 184 66 l 184 63 l 186 66 q 217 112 243 154 q 269 197 291 242 q 313 287 333 338 q 354 389 375 452 q 376 455 378 458 q 380 460 384 461 q 388 463 394 464 q 400 464 409 464 q 417 464 423 464 q 428 463 431 462 q 434 461 435 459 q 437 458 437 456 z"},"O":{"x_min":0,"x_max":647,"ha":647,"o":"m 621 420 q 621 385 615 340 q 608 295 593 247 q 578 200 552 154 q 526 108 488 72 q 450 36 397 14 q 344 -8 274 -8 q 221 -8 181 6 q 141 21 114 48 q 87 76 74 116 q 61 156 61 208 q 61 248 68 295 q 75 342 91 390 q 107 438 133 483 q 160 528 198 563 q 237 598 289 619 q 341 640 409 640 q 462 640 502 625 q 542 610 568 582 q 595 553 608 512 q 621 472 621 420 z m 556 417 q 556 454 548 485 q 540 516 521 539 q 502 561 472 574 q 441 586 397 586 q 342 586 301 566 q 259 546 229 514 q 199 482 179 441 q 159 400 147 359 q 136 317 131 279 q 126 240 126 213 q 126 176 134 145 q 143 115 162 93 q 181 71 211 59 q 242 46 286 46 q 340 46 382 66 q 423 85 453 117 q 483 149 503 189 q 523 229 535 271 q 546 312 551 350 q 556 389 556 417 z"},"(":{"x_min":0,"x_max":299,"ha":299,"o":"m 322 675 q 268 596 230 518 q 192 440 169 366 q 145 292 134 221 q 123 151 123 87 q 123 60 125 30 q 126 0 130 -31 q 134 -62 139 -92 q 145 -122 153 -149 q 154 -154 154 -157 q 154 -160 152 -162 q 150 -165 145 -166 q 140 -167 131 -167 q 125 -167 121 -166 q 117 -166 114 -165 q 110 -164 108 -162 q 106 -160 106 -158 q 87 -102 76 -39 q 64 24 64 100 q 64 163 75 231 q 85 300 109 373 q 133 445 172 522 q 211 600 268 681 q 270 683 272 685 q 275 687 279 688 q 283 690 289 691 q 295 691 303 691 q 311 691 315 690 q 320 689 323 687 q 325 685 325 682 q 325 679 322 675 z"},"C":{"x_min":0,"x_max":525,"ha":525,"o":"m 559 566 q 559 557 556 546 q 553 535 549 529 q 544 523 539 523 q 532 523 522 533 q 513 542 496 554 q 480 565 454 574 q 428 584 388 584 q 345 584 309 568 q 272 552 243 524 q 214 497 192 461 q 170 425 156 385 q 141 346 134 305 q 126 264 126 227 q 126 185 137 152 q 147 119 167 96 q 187 73 216 61 q 245 49 281 49 q 321 49 350 58 q 379 67 401 79 q 422 90 436 99 q 450 108 458 108 q 463 108 465 105 q 468 102 468 94 q 468 92 467 88 q 467 85 466 81 q 465 78 464 73 q 463 69 462 65 q 460 62 458 58 q 457 55 452 50 q 447 45 430 35 q 413 25 389 16 q 365 7 334 0 q 304 -6 271 -6 q 223 -6 184 9 q 146 24 118 53 q 91 83 76 125 q 62 168 62 224 q 62 271 71 320 q 81 369 100 415 q 120 461 148 501 q 176 542 213 573 q 250 603 296 621 q 342 638 396 638 q 433 638 464 630 q 495 621 517 609 q 539 596 549 587 q 559 577 559 566 z"},"W":{"x_min":0,"x_max":881,"ha":881,"o":"m 621 11 q 619 7 615 4 q 612 1 606 0 q 601 -1 594 -2 q 587 -3 579 -3 q 570 -3 563 -2 q 556 -1 551 0 q 546 1 544 4 q 541 7 541 11 l 495 530 l 494 530 l 256 11 q 254 7 250 4 q 247 1 242 0 q 237 -1 230 -2 q 222 -3 213 -3 q 203 -3 196 -2 q 189 -1 184 0 q 179 1 176 4 q 173 7 173 11 l 114 612 q 113 619 113 624 q 113 628 116 631 q 119 633 125 634 q 131 635 142 635 q 149 635 157 634 q 165 633 168 631 q 172 629 173 625 q 174 622 175 616 l 222 68 l 223 68 l 479 622 q 481 625 483 628 q 485 630 489 632 q 493 633 500 634 q 506 635 518 635 q 525 635 531 634 q 536 633 539 632 q 542 630 542 628 q 543 625 544 622 l 592 68 l 593 68 l 859 622 q 860 625 863 628 q 865 630 869 632 q 874 633 880 634 q 887 635 896 635 q 906 635 913 634 q 919 633 922 630 q 925 628 924 624 q 924 619 920 612 z"},"A":{"x_min":0,"x_max":563,"ha":563,"o":"m 500 20 q 501 13 500 8 q 499 3 495 1 q 492 -1 485 -2 q 478 -3 467 -3 q 460 -3 455 -2 q 449 -1 446 0 q 443 1 441 4 q 440 6 439 10 l 413 178 l 135 178 l 43 10 q 42 6 39 4 q 37 1 32 0 q 28 -1 22 -2 q 15 -3 6 -3 q -4 -3 -11 -2 q -18 -1 -21 1 q -24 4 -23 8 q -23 13 -19 20 l 322 621 q 325 625 328 628 q 332 630 336 632 q 341 633 348 634 q 354 635 363 635 q 372 635 378 634 q 384 633 389 632 q 394 630 396 628 q 398 625 398 621 z m 350 568 l 350 568 l 163 228 l 404 228 z"},"f":{"x_min":0,"x_max":299,"ha":299,"o":"m 395 653 q 395 651 394 649 q 394 646 394 642 q 393 639 392 635 q 391 631 390 628 q 388 625 386 622 q 384 620 381 620 q 378 620 373 622 q 367 625 360 627 q 352 629 342 632 q 332 634 319 634 q 295 634 279 626 q 262 619 250 604 q 238 588 230 565 q 222 542 215 510 l 207 462 l 315 462 q 320 462 323 459 q 326 456 326 448 q 326 443 325 438 q 324 434 323 430 q 321 426 319 423 q 317 419 315 417 q 313 415 310 414 q 308 413 305 413 l 196 413 l 109 -21 q 101 -62 87 -92 q 73 -122 53 -141 q 34 -160 8 -169 q -17 -178 -48 -178 q -68 -178 -80 -175 q -92 -172 -95 -169 q -97 -167 -98 -164 q -99 -162 -99 -158 q -99 -156 -98 -153 q -98 -150 -97 -146 q -96 -143 -95 -139 q -94 -135 -92 -131 q -90 -128 -88 -126 q -86 -124 -83 -124 q -80 -124 -77 -125 q -74 -125 -70 -126 q -66 -127 -61 -128 q -55 -128 -47 -128 q -24 -128 -7 -121 q 9 -114 21 -99 q 33 -83 41 -60 q 49 -37 55 -4 l 139 413 l 72 413 q 67 413 65 415 q 62 418 62 425 q 62 429 63 433 q 63 438 64 442 q 65 446 67 449 q 68 453 71 456 q 73 458 76 460 q 79 462 83 462 l 148 462 l 162 530 q 170 570 184 599 q 198 628 218 647 q 238 666 264 675 q 289 684 319 684 q 329 684 340 682 q 351 681 361 679 q 371 677 378 674 q 386 671 389 668 q 392 666 393 661 q 395 657 395 653 z"},"Q":{"x_min":0,"x_max":657,"ha":657,"o":"m 625 -42 q 625 -45 625 -50 q 624 -55 623 -59 q 622 -63 620 -67 q 618 -71 616 -74 q 613 -78 611 -79 q 608 -81 604 -81 q 601 -81 592 -78 q 583 -75 570 -69 q 558 -63 542 -54 q 526 -45 508 -32 q 490 -20 472 -4 q 453 12 435 31 q 401 11 362 1 q 323 -8 274 -8 q 220 -8 180 6 q 140 21 114 48 q 87 76 74 116 q 61 156 61 208 q 61 248 67 295 q 74 342 90 390 q 106 438 133 483 q 159 528 198 563 q 236 598 288 619 q 340 640 408 640 q 461 640 501 625 q 541 610 568 582 q 594 553 607 512 q 621 472 621 420 q 621 397 618 369 q 615 340 609 309 q 603 278 592 246 q 582 213 566 182 q 551 150 531 121 q 510 92 482 67 q 512 39 536 22 q 560 5 577 -4 q 595 -14 606 -19 q 617 -23 620 -26 q 623 -29 624 -32 q 625 -35 625 -42 z m 556 417 q 556 454 547 485 q 539 516 521 539 q 502 561 471 574 q 441 586 397 586 q 342 586 300 566 q 259 546 229 514 q 198 482 178 441 q 159 400 147 359 q 135 317 130 279 q 125 240 125 213 q 125 176 134 145 q 142 115 161 93 q 180 71 211 59 q 241 46 285 46 q 340 46 381 66 q 422 85 452 117 q 482 149 502 189 q 522 229 534 271 q 546 312 551 350 q 556 389 556 417 z"},"w":{"x_min":0,"x_max":699,"ha":699,"o":"m 698 456 q 698 451 697 447 q 696 443 694 440 q 676 387 653 331 q 630 276 603 221 q 576 166 545 113 q 513 60 477 10 q 474 6 470 3 q 466 1 461 0 q 457 -2 451 -2 q 445 -3 438 -3 q 430 -3 424 -2 q 417 -1 414 0 q 410 1 408 4 q 406 6 406 10 l 368 361 l 205 12 q 203 8 199 5 q 196 2 191 0 q 186 -1 179 -2 q 173 -3 165 -3 q 156 -3 149 -2 q 143 -1 138 0 q 133 1 130 4 q 127 6 127 10 l 76 440 q 76 444 75 447 q 75 450 75 452 q 75 456 77 458 q 79 461 83 462 q 86 463 91 464 q 96 464 104 464 q 113 464 118 464 q 124 463 127 461 q 130 460 132 458 q 133 455 133 452 l 175 64 l 175 62 l 177 64 l 356 452 q 357 455 359 457 q 361 459 364 461 q 367 463 372 464 q 377 464 385 464 q 393 464 398 464 q 403 463 407 461 q 410 460 412 458 q 413 455 414 452 l 456 68 l 456 65 l 458 68 q 483 105 507 150 q 532 196 555 246 q 578 296 598 348 q 619 401 636 452 q 637 455 639 458 q 642 460 646 461 q 649 463 656 464 q 662 464 671 464 q 679 464 685 464 q 690 463 693 462 q 696 461 697 459 q 698 458 698 456 z"},"-":{"x_min":0,"x_max":306,"ha":306,"o":"m 274 258 q 274 255 274 252 q 274 248 273 244 q 272 240 271 237 q 269 233 267 230 q 265 227 261 225 q 258 223 254 223 l 49 223 q 44 223 42 227 q 39 231 39 237 q 39 239 39 242 q 40 246 41 250 q 42 253 43 257 q 44 261 47 264 q 49 268 52 270 q 55 271 59 271 l 264 271 q 270 271 272 268 q 274 264 274 258 z"},"E":{"x_min":0,"x_max":489,"ha":489,"o":"m 502 617 q 502 615 502 611 q 502 607 501 603 q 500 599 499 594 q 497 590 495 586 q 492 583 489 581 q 485 579 480 579 l 222 579 l 178 356 l 401 356 q 407 356 410 353 q 413 350 413 343 q 413 340 412 336 q 412 333 411 328 q 410 323 408 319 q 407 315 405 312 q 402 310 399 307 q 396 305 391 305 l 167 305 l 117 53 l 380 53 q 385 53 388 50 q 391 46 391 39 q 391 36 391 32 q 391 28 390 23 q 389 19 387 15 q 386 11 383 7 q 381 4 377 2 q 374 0 369 0 l 73 0 q 69 0 64 1 q 60 3 57 7 q 54 10 52 16 q 51 22 53 31 l 167 601 q 170 619 181 625 q 192 632 201 632 l 492 632 q 502 632 502 617 z"},"s":{"x_min":0,"x_max":387,"ha":387,"o":"m 357 425 q 357 420 356 414 q 355 408 353 403 q 350 397 347 393 q 344 389 340 389 q 334 389 327 394 q 319 399 308 405 q 296 411 280 416 q 264 421 241 421 q 217 421 198 414 q 180 407 167 395 q 155 383 148 367 q 142 352 142 336 q 142 314 155 300 q 168 286 188 275 q 208 264 232 253 q 255 243 275 229 q 295 215 308 195 q 321 175 321 145 q 321 112 308 84 q 295 56 271 35 q 247 15 213 3 q 179 -8 138 -8 q 115 -8 95 -5 q 76 -1 60 4 q 43 10 32 17 q 20 23 14 30 q 10 34 8 38 q 6 42 6 47 q 6 51 7 55 q 7 60 9 64 q 10 68 11 72 q 13 76 15 79 q 17 83 19 84 q 21 86 23 86 q 29 86 38 79 q 46 72 59 64 q 73 56 93 49 q 114 42 144 42 q 174 42 196 50 q 218 58 233 70 q 247 83 254 100 q 261 116 261 135 q 261 157 248 171 q 234 186 214 197 q 194 208 171 218 q 148 229 128 242 q 108 256 95 276 q 82 296 82 327 q 82 358 94 384 q 106 411 128 430 q 150 449 180 459 q 211 470 247 470 q 264 470 281 467 q 297 464 311 460 q 325 456 336 450 q 347 444 352 439 q 357 434 357 425 z"},">":{"x_min":0,"x_max":498,"ha":498,"o":"m 16 62 q 16 71 18 80 q 20 89 23 96 q 27 104 32 109 q 37 115 43 118 l 409 282 l 108 447 q 98 453 98 463 q 98 469 98 475 q 99 481 100 487 q 102 493 104 498 q 105 502 108 506 q 110 509 113 510 q 116 511 120 509 l 472 310 q 474 308 476 304 q 477 300 477 292 q 477 288 476 282 q 475 275 473 269 q 471 263 467 258 q 463 252 458 250 l 33 53 q 24 49 20 52 q 16 54 16 62 z"},"l":{"x_min":0,"x_max":221,"ha":221,"o":"m 96 10 q 95 7 94 4 q 92 2 88 0 q 84 -1 79 -2 q 73 -3 64 -3 q 56 -3 50 -2 q 45 -1 42 0 q 39 2 38 4 q 37 7 38 10 l 169 668 q 170 671 172 673 q 173 676 177 677 q 181 679 187 680 q 192 681 201 681 q 209 681 215 680 q 220 679 223 677 q 226 676 227 673 q 228 671 227 668 z"},"8":{"x_min":0,"x_max":507,"ha":507,"o":"m 447 180 q 447 156 441 132 q 435 108 421 87 q 408 66 388 49 q 369 31 342 19 q 315 6 281 -1 q 247 -8 206 -8 q 159 -8 125 2 q 92 12 70 29 q 48 46 38 69 q 27 91 27 117 q 27 151 40 180 q 52 209 76 235 q 100 261 136 283 q 171 306 218 327 q 167 354 144 387 q 121 420 121 462 q 121 484 126 506 q 132 528 143 548 q 154 567 172 584 q 189 601 212 614 q 236 626 266 633 q 296 640 333 640 q 380 640 411 628 q 441 617 459 599 q 477 582 484 561 q 491 541 491 522 q 491 490 479 462 q 468 435 447 411 q 425 387 395 366 q 364 346 325 328 q 358 311 381 293 q 404 276 419 258 q 434 240 440 221 q 447 202 447 180 z m 429 516 q 429 530 424 543 q 419 557 407 567 q 395 578 375 584 q 355 590 327 590 q 289 590 261 579 q 234 568 216 551 q 199 534 190 513 q 182 491 182 471 q 182 453 186 438 q 189 424 199 411 q 209 398 228 384 q 246 371 277 354 q 312 370 341 388 q 369 405 389 426 q 408 446 419 468 q 429 491 429 516 z m 385 174 q 385 191 378 207 q 372 222 358 237 q 344 252 321 268 q 299 283 267 300 q 215 277 181 256 q 147 235 127 214 q 106 193 98 172 q 90 150 90 126 q 90 109 96 94 q 102 79 116 67 q 131 55 155 48 q 179 42 215 42 q 260 42 292 53 q 324 64 344 83 q 365 102 375 125 q 385 149 385 174 z"},"\\":{"x_min":0,"x_max":362,"ha":362,"o":"m 292 -110 q 293 -116 292 -120 q 292 -124 288 -125 q 285 -127 280 -128 q 274 -128 265 -128 q 256 -128 251 -128 q 245 -127 242 -126 q 238 -125 237 -123 q 235 -121 234 -118 l 96 694 q 95 700 96 704 q 97 708 100 709 q 104 711 109 712 q 115 712 124 712 q 133 712 138 712 q 144 711 147 710 q 150 709 151 707 q 152 705 153 702 z"},"e":{"x_min":0,"x_max":470,"ha":470,"o":"m 440 365 q 440 332 425 306 q 409 280 376 261 q 343 243 291 233 q 239 223 167 223 l 110 223 q 107 204 105 187 q 104 169 104 154 q 104 100 130 71 q 156 42 215 42 q 246 42 271 46 q 295 51 313 56 q 331 62 342 66 q 353 71 356 71 q 360 71 362 68 q 364 64 364 60 q 364 57 363 52 q 362 47 361 42 q 359 37 357 32 q 354 27 351 23 q 345 18 331 12 q 316 6 297 2 q 277 -2 254 -5 q 231 -8 209 -8 q 167 -8 136 2 q 104 12 84 32 q 63 52 53 82 q 42 112 42 152 q 42 183 49 219 q 55 255 68 290 q 81 326 101 358 q 122 391 150 415 q 178 440 215 455 q 252 470 299 470 q 337 470 364 460 q 391 450 408 434 q 425 419 432 400 q 440 382 440 365 z m 378 358 q 378 386 356 403 q 334 420 294 420 q 259 420 232 408 q 204 396 183 375 q 162 354 147 327 q 132 300 123 271 l 177 271 q 236 271 274 278 q 313 285 336 297 q 359 309 369 325 q 378 341 378 358 z"},"b":{"x_min":0,"x_max":507,"ha":507,"o":"m 463 315 q 463 287 458 252 q 453 218 442 182 q 430 146 412 112 q 395 78 369 51 q 343 24 310 8 q 276 -8 233 -8 q 188 -8 157 9 q 125 26 101 56 l 91 10 q 90 3 83 0 q 76 -3 62 -3 q 46 -3 42 0 q 37 4 38 10 l 169 668 q 170 671 172 673 q 173 676 177 677 q 181 679 187 680 q 192 681 201 681 q 209 681 215 680 q 220 679 223 677 q 226 676 227 673 q 228 671 227 668 l 186 460 q 183 446 179 432 q 176 417 172 404 q 168 390 165 377 q 161 365 158 356 q 166 374 183 394 q 200 414 224 430 q 247 447 275 458 q 304 470 333 470 q 363 470 384 462 q 405 454 420 440 q 434 427 443 411 q 451 394 456 377 q 460 359 462 343 q 463 327 463 315 z m 402 311 q 402 325 399 344 q 397 363 389 380 q 381 396 365 408 q 350 420 324 420 q 295 420 265 404 q 235 388 210 359 q 184 330 164 291 q 144 251 135 204 l 117 115 q 143 77 173 59 q 202 42 239 42 q 267 42 290 54 q 312 67 331 89 q 349 110 362 138 q 375 166 384 196 q 393 226 397 255 q 402 285 402 311 z"},"%":{"x_min":0,"x_max":707,"ha":707,"o":""},"m":{"x_min":0,"x_max":784,"ha":784,"o":"m 661 10 q 660 7 658 4 q 657 2 653 0 q 649 -1 644 -2 q 638 -3 629 -3 q 621 -3 615 -2 q 610 -1 607 0 q 604 2 603 4 q 602 7 603 10 l 658 287 q 661 303 663 316 q 665 330 665 343 q 665 379 651 400 q 637 421 603 421 q 575 421 546 405 q 518 389 492 360 q 466 332 447 292 q 427 252 417 206 l 378 10 q 377 7 376 4 q 374 2 370 0 q 367 -1 361 -2 q 355 -3 347 -3 q 338 -3 333 -2 q 328 -1 325 0 q 322 2 321 4 q 320 7 320 10 l 375 287 q 379 303 381 319 q 382 334 382 347 q 382 381 368 401 q 354 421 320 421 q 292 421 264 405 q 235 389 209 360 q 184 332 164 292 q 144 252 135 206 l 96 10 q 95 7 94 4 q 92 2 88 0 q 84 -1 79 -2 q 73 -3 64 -3 q 56 -3 50 -2 q 45 -1 42 0 q 39 2 38 4 q 37 7 38 10 l 127 452 q 127 455 129 457 q 131 459 134 461 q 138 463 143 464 q 148 464 156 464 q 163 464 168 464 q 173 463 176 461 q 178 459 179 457 q 180 455 179 452 l 161 361 q 167 377 184 396 q 201 416 223 432 q 246 448 273 459 q 301 470 329 470 q 359 470 380 462 q 401 454 414 439 q 428 425 434 405 q 440 385 441 361 q 450 378 467 397 q 484 416 507 432 q 529 448 556 459 q 583 470 611 470 q 643 470 664 461 q 686 452 699 436 q 712 420 718 399 q 723 378 723 354 q 723 337 721 321 q 720 304 716 287 z"},"#":{"x_min":0,"x_max":498,"ha":498,"o":"m 521 443 q 521 439 519 433 q 518 427 515 421 q 513 416 509 411 q 505 407 499 407 l 431 407 l 374 233 l 436 233 q 441 233 444 229 q 447 225 447 218 q 447 213 446 207 q 445 200 442 195 q 439 190 435 187 q 431 183 425 183 l 356 183 l 300 8 q 297 2 291 0 q 284 -3 265 -3 q 256 -3 251 -2 q 246 -2 243 0 q 240 1 240 3 q 240 5 241 8 l 298 183 l 147 183 l 90 8 q 89 5 88 3 q 86 1 83 0 q 80 -2 74 -2 q 69 -3 60 -3 q 50 -3 44 -2 q 39 -2 35 0 q 32 1 31 3 q 31 5 32 8 l 89 183 l 26 183 q 16 183 16 197 q 16 202 16 208 q 17 214 20 220 q 22 226 26 229 q 30 233 37 233 l 106 233 l 163 407 l 99 407 q 92 407 90 412 q 87 416 87 424 q 87 431 89 437 q 90 443 93 448 q 96 453 100 455 q 104 458 108 458 l 179 458 l 233 623 q 234 626 236 628 q 238 630 242 632 q 246 633 252 634 q 259 635 268 635 q 277 635 282 634 q 288 633 290 632 q 292 630 293 628 q 293 626 292 623 l 238 458 l 388 458 l 442 623 q 443 629 449 632 q 456 635 474 635 q 483 635 489 634 q 495 633 497 632 q 500 630 500 628 q 501 626 500 623 l 447 458 l 509 458 q 515 458 518 454 q 521 450 521 443 z m 222 407 l 165 233 l 315 233 l 372 407 z"},",":{"x_min":0,"x_max":245,"ha":245,"o":"m 136 71 q 136 48 125 24 q 114 0 93 -25 l 4 -129 q -1 -136 -9 -138 q -18 -141 -32 -141 q -38 -141 -41 -140 q -45 -139 -46 -137 q -48 -136 -47 -133 q -46 -129 -43 -125 l 52 9 l 62 59 q 63 70 66 76 q 69 83 74 86 q 79 90 86 91 q 93 92 104 92 q 113 92 119 91 q 125 90 129 88 q 133 85 134 81 q 136 77 136 71 z"},"n":{"x_min":0,"x_max":507,"ha":507,"o":"m 446 354 q 446 337 444 321 q 442 304 439 287 l 384 10 q 383 7 381 4 q 379 2 376 0 q 372 -1 366 -2 q 361 -3 352 -3 q 344 -3 338 -2 q 333 -1 330 0 q 327 2 326 4 q 325 7 326 10 l 381 287 q 385 304 386 319 q 388 334 388 346 q 388 380 373 400 q 358 421 324 421 q 295 421 265 405 q 235 389 210 360 q 184 332 164 292 q 144 252 135 206 l 96 10 q 95 7 94 4 q 92 2 88 0 q 84 -1 79 -2 q 73 -3 64 -3 q 56 -3 50 -2 q 45 -1 42 0 q 39 2 38 4 q 37 7 38 10 l 127 452 q 127 455 129 457 q 131 459 134 461 q 138 463 143 464 q 148 464 156 464 q 163 464 168 464 q 173 463 176 461 q 178 459 179 457 q 180 455 179 452 l 161 361 q 167 377 184 396 q 200 416 223 432 q 247 448 275 459 q 303 470 334 470 q 366 470 387 460 q 409 450 422 434 q 435 418 441 397 q 446 376 446 354 z"},"h":{"x_min":0,"x_max":507,"ha":507,"o":"m 384 10 q 383 7 381 4 q 379 2 376 0 q 372 -1 366 -2 q 361 -3 352 -3 q 344 -3 338 -2 q 333 -1 330 0 q 327 2 326 4 q 325 7 326 10 l 381 287 q 384 301 386 318 q 388 336 388 349 q 388 365 384 378 q 381 391 373 401 q 366 410 354 416 q 341 421 324 421 q 295 421 265 405 q 235 388 210 359 q 184 330 164 290 q 144 250 135 204 l 96 10 q 95 7 94 4 q 92 2 88 0 q 84 -1 79 -2 q 73 -3 64 -3 q 56 -3 50 -2 q 45 -1 42 0 q 39 2 38 4 q 37 7 38 10 l 169 668 q 170 671 172 673 q 173 676 177 677 q 181 679 187 680 q 192 681 201 681 q 209 681 215 680 q 220 679 223 677 q 226 676 227 673 q 228 671 227 668 l 186 457 q 183 443 179 429 q 176 416 172 402 q 168 389 165 377 q 161 365 158 356 q 166 374 182 394 q 199 414 223 430 q 246 447 275 458 q 303 470 334 470 q 364 470 385 461 q 407 452 420 437 q 434 421 440 400 q 446 379 446 354 q 446 337 444 321 q 442 304 439 287 z"},"z":{"x_min":0,"x_max":394,"ha":394,"o":"m 377 446 q 377 444 377 441 q 377 438 376 434 q 376 431 375 427 q 375 424 374 421 q 371 411 365 402 q 359 393 349 380 l 77 51 l 298 51 q 303 51 306 47 q 309 43 309 36 q 309 32 308 28 q 308 24 306 20 q 305 16 303 12 q 302 9 300 6 q 297 3 294 2 q 292 0 288 0 l 24 0 q 16 0 11 5 q 7 10 7 17 q 7 20 8 25 q 9 29 10 34 q 11 39 12 43 q 13 47 14 49 q 15 51 16 54 q 17 56 20 60 q 22 63 27 69 q 31 74 37 82 l 310 411 l 107 411 q 101 411 98 415 q 95 418 95 425 q 95 429 96 434 q 96 438 97 442 q 99 446 101 450 q 103 454 105 456 q 107 459 110 460 q 113 462 117 462 l 361 462 q 370 462 374 458 q 377 453 377 446 z"},"B":{"x_min":0,"x_max":535,"ha":535,"o":"m 498 512 q 498 481 490 454 q 482 427 468 404 q 453 381 432 364 q 411 346 384 334 q 404 330 422 320 q 439 309 452 293 q 465 278 472 257 q 479 236 479 211 q 479 183 472 156 q 464 130 450 106 q 437 83 416 63 q 396 44 370 30 q 344 16 313 8 q 282 0 241 0 l 78 0 q 63 0 56 7 q 49 15 53 31 l 167 601 q 170 619 181 625 q 192 632 204 632 l 330 632 q 377 632 408 624 q 439 615 459 600 q 479 584 489 562 q 498 540 498 512 z m 433 501 q 433 519 427 533 q 421 547 408 557 q 395 567 375 573 q 354 579 321 579 l 222 579 l 177 352 l 285 352 q 327 352 354 366 q 381 380 399 402 q 416 424 424 451 q 433 477 433 501 z m 415 206 q 415 251 383 275 q 351 300 286 300 l 166 300 l 117 53 l 250 53 q 292 53 322 66 q 352 78 372 99 q 393 120 404 147 q 415 175 415 206 z"},"K":{"x_min":0,"x_max":504,"ha":504,"o":"m 542 621 q 542 616 538 610 q 534 604 525 597 l 242 331 l 425 29 q 430 21 431 18 q 433 14 433 11 q 433 7 432 5 q 431 2 427 1 q 424 -1 419 -2 q 413 -3 404 -3 q 394 -3 388 -2 q 381 -1 377 0 q 374 1 371 4 q 369 6 367 10 l 173 334 l 108 10 q 108 7 106 4 q 104 2 100 0 q 96 -1 90 -2 q 84 -3 76 -3 q 67 -3 62 -2 q 56 -1 53 0 q 50 2 49 4 q 48 7 49 10 l 171 622 q 171 625 174 627 q 176 630 180 631 q 184 633 189 634 q 195 635 204 635 q 212 635 218 634 q 223 633 226 631 q 229 630 230 627 q 231 625 231 622 l 174 335 l 473 622 q 476 625 480 628 q 484 630 489 632 q 494 633 500 634 q 507 635 515 635 q 524 635 529 634 q 535 633 538 631 q 541 629 542 627 q 542 625 542 621 z"},"R":{"x_min":0,"x_max":532,"ha":532,"o":"m 499 502 q 499 468 489 438 q 479 408 459 383 q 439 359 411 340 q 382 321 346 310 q 373 301 389 270 q 405 239 414 189 l 439 43 q 440 35 442 27 q 443 19 443 13 q 443 9 441 6 q 439 3 435 1 q 431 -1 424 -2 q 417 -3 408 -3 q 400 -3 395 -2 q 390 -1 387 1 q 384 3 383 7 q 381 10 380 16 l 355 169 q 351 196 344 219 q 336 241 322 258 q 308 275 286 285 q 264 294 231 294 l 166 294 l 108 10 q 108 7 106 4 q 104 2 100 0 q 96 -1 90 -2 q 84 -3 76 -3 q 68 -3 63 -2 q 57 -1 54 0 q 51 1 49 4 q 48 6 49 10 l 167 601 q 171 619 182 625 q 193 632 205 632 l 324 632 q 370 632 403 623 q 436 614 457 597 q 479 580 489 556 q 499 532 499 502 z m 434 495 q 434 513 427 529 q 421 544 407 555 q 394 566 371 573 q 349 579 318 579 l 223 579 l 176 347 l 257 347 q 304 347 338 359 q 371 372 392 393 q 414 414 424 440 q 434 467 434 495 z"},"T":{"x_min":0,"x_max":483,"ha":483,"o":"m 552 617 q 552 614 552 610 q 552 606 551 602 q 550 598 548 594 q 547 589 544 586 q 542 583 538 581 q 535 579 530 579 l 342 579 l 228 10 q 227 7 225 4 q 223 2 219 0 q 216 -1 210 -2 q 204 -3 195 -3 q 187 -3 181 -2 q 176 -1 173 0 q 169 2 168 4 q 167 7 168 10 l 282 579 l 94 579 q 88 579 86 583 q 83 587 83 594 q 83 597 84 601 q 84 604 85 609 q 86 613 88 617 q 90 621 92 625 q 95 628 98 630 q 101 632 105 632 l 542 632 q 547 632 550 628 q 552 624 552 617 z"},"P":{"x_min":0,"x_max":508,"ha":508,"o":"m 504 487 q 504 461 498 434 q 492 407 479 381 q 467 354 447 331 q 428 308 400 290 q 373 272 338 262 q 303 251 255 251 l 157 251 l 108 10 q 108 7 106 4 q 104 2 100 0 q 96 -1 90 -2 q 84 -3 76 -3 q 69 -3 63 -2 q 58 -1 54 0 q 51 1 49 4 q 48 6 49 10 l 167 601 q 170 619 181 625 q 192 632 205 632 l 322 632 q 346 632 364 630 q 382 628 398 625 q 423 619 443 606 q 463 594 477 577 q 490 559 497 536 q 504 514 504 487 z m 441 481 q 441 515 424 540 q 407 564 372 573 q 359 577 344 578 q 329 579 313 579 l 222 579 l 167 304 l 259 304 q 297 304 323 312 q 350 321 369 335 q 389 349 402 367 q 416 385 425 405 q 433 425 437 445 q 441 464 441 481 z"},"|":{"x_min":0,"x_max":453,"ha":453,"o":"m 175 -166 q 174 -168 172 -171 q 170 -173 167 -175 q 164 -177 158 -177 q 153 -178 145 -178 q 137 -178 132 -177 q 127 -177 124 -175 q 122 -173 121 -171 q 120 -168 121 -166 l 291 685 q 291 688 293 690 q 295 692 298 694 q 302 695 307 696 q 312 697 320 697 q 328 697 333 696 q 338 695 341 694 q 344 692 344 690 q 345 688 345 685 z"},"t":{"x_min":0,"x_max":329,"ha":329,"o":"m 338 446 q 338 442 337 438 q 337 435 336 431 q 334 427 333 424 q 331 420 328 418 q 326 416 323 414 q 320 413 317 413 l 195 413 l 141 146 q 139 134 137 120 q 136 105 136 96 q 136 68 147 55 q 158 42 184 42 q 197 42 208 45 q 218 47 226 50 q 234 53 240 56 q 245 58 249 58 q 253 58 255 56 q 257 53 257 47 q 257 42 256 37 q 255 31 254 26 q 252 21 250 17 q 248 13 245 10 q 242 6 234 3 q 227 0 218 -2 q 208 -4 198 -6 q 188 -7 178 -7 q 152 -7 133 -2 q 114 4 101 16 q 88 28 82 46 q 76 64 76 89 q 76 95 77 102 q 77 109 78 116 q 80 124 81 132 q 82 140 83 146 l 137 413 l 71 413 q 66 413 63 415 q 61 418 61 426 q 61 433 62 439 q 62 445 65 450 q 67 456 71 459 q 75 462 81 462 l 146 462 l 168 570 q 169 573 171 576 q 173 578 177 580 q 180 582 186 582 q 191 583 200 583 q 208 583 214 582 q 219 582 222 580 q 225 578 226 576 q 227 573 226 570 l 205 462 l 327 462 q 333 462 336 457 q 338 451 338 446 z"},"M":{"x_min":0,"x_max":845,"ha":845,"o":"m 709 10 q 708 7 706 4 q 704 2 700 0 q 696 -1 690 -2 q 685 -3 676 -3 q 668 -3 662 -2 q 657 -1 654 0 q 650 2 649 4 q 648 7 649 10 l 763 580 l 762 580 l 398 6 q 396 2 389 0 q 382 -3 369 -3 q 355 -3 350 0 q 345 2 344 6 l 223 580 l 222 580 l 108 10 q 107 7 105 4 q 103 2 99 0 q 95 -1 89 -2 q 83 -3 75 -3 q 67 -3 61 -2 q 56 -1 53 0 q 50 2 49 4 q 48 7 49 10 l 167 601 q 168 610 172 616 q 176 622 181 625 q 186 629 191 630 q 196 632 200 632 l 232 632 q 244 632 252 629 q 260 626 266 621 q 271 616 275 609 q 278 601 280 591 l 388 90 l 390 90 l 708 591 q 714 601 720 608 q 726 615 734 621 q 741 626 750 629 q 759 632 770 632 l 806 632 q 810 632 814 630 q 819 629 822 625 q 826 622 827 616 q 828 610 827 601 z"},"g":{"x_min":0,"x_max":507,"ha":507,"o":"m 372 -34 q 365 -70 348 -97 q 332 -125 307 -142 q 282 -160 248 -169 q 215 -178 174 -178 q 134 -178 101 -169 q 67 -161 48 -148 q 41 -144 38 -139 q 35 -134 35 -127 q 35 -125 35 -120 q 36 -116 37 -112 q 38 -108 39 -104 q 41 -100 43 -97 q 45 -94 48 -92 q 51 -90 55 -90 q 61 -90 70 -96 q 79 -102 94 -109 q 109 -116 131 -122 q 153 -127 186 -127 q 213 -127 235 -122 q 257 -116 273 -104 q 290 -92 301 -74 q 311 -56 316 -31 q 326 21 335 54 q 344 87 350 105 q 342 86 325 67 q 308 47 284 30 q 261 13 232 2 q 204 -8 175 -8 q 138 -8 113 4 q 88 16 73 36 q 58 57 51 85 q 44 114 44 146 q 44 173 50 208 q 55 242 66 278 q 78 314 95 348 q 113 383 139 410 q 165 437 198 453 q 232 470 274 470 q 320 470 351 452 q 381 434 406 404 l 417 452 q 418 458 425 461 q 432 464 446 464 q 454 464 458 464 q 463 463 466 461 q 469 459 469 457 q 470 455 470 452 z m 391 345 q 365 382 335 401 q 306 420 269 420 q 240 420 216 406 q 193 393 175 370 q 157 348 144 319 q 130 290 122 260 q 114 230 110 201 q 106 172 106 149 q 106 126 110 107 q 114 87 124 73 q 133 58 147 50 q 162 42 184 42 q 213 42 243 57 q 272 73 298 102 q 324 130 344 170 q 363 209 373 256 z"},"j":{"x_min":0,"x_max":230,"ha":230,"o":"m 232 600 q 229 589 226 581 q 223 574 218 569 q 213 564 205 562 q 198 561 187 561 q 175 561 168 562 q 162 564 158 569 q 154 574 154 581 q 154 589 156 600 q 158 611 161 619 q 165 626 170 631 q 175 636 183 638 q 190 640 202 640 q 213 640 220 638 q 227 636 230 631 q 234 626 234 619 q 234 611 232 600 z m 98 -22 q 90 -59 80 -87 q 69 -116 52 -136 q 34 -157 9 -167 q -16 -178 -51 -178 q -68 -178 -80 -176 q -92 -173 -95 -170 q -97 -168 -98 -166 q -99 -163 -99 -159 q -99 -157 -98 -154 q -98 -151 -97 -147 q -96 -143 -95 -139 q -94 -135 -92 -132 q -90 -129 -87 -127 q -85 -125 -82 -125 q -78 -125 -76 -125 q -73 -126 -70 -126 q -67 -126 -62 -127 q -57 -127 -49 -127 q -30 -127 -16 -122 q -2 -117 9 -104 q 19 -92 27 -72 q 34 -52 40 -22 l 135 452 q 135 455 137 457 q 139 459 143 461 q 146 463 152 464 q 158 464 167 464 q 175 464 180 464 q 186 463 189 461 q 192 459 193 457 q 193 455 193 452 z"},"i":{"x_min":0,"x_max":221,"ha":221,"o":"m 223 600 q 221 589 218 581 q 214 574 209 569 q 204 564 196 562 q 188 561 177 561 q 166 561 158 562 q 151 564 148 569 q 145 574 145 581 q 145 589 146 600 q 149 611 152 619 q 156 626 161 631 q 166 636 174 638 q 182 640 193 640 q 204 640 211 638 q 218 636 221 631 q 225 626 225 619 q 225 611 223 600 z m 96 10 q 95 7 94 4 q 92 2 88 0 q 84 -1 79 -2 q 73 -3 64 -3 q 56 -3 50 -2 q 45 -1 42 0 q 39 2 38 4 q 37 7 38 10 l 126 452 q 126 455 128 457 q 130 459 134 461 q 137 463 143 464 q 149 464 158 464 q 166 464 171 464 q 177 463 180 461 q 183 459 183 457 q 184 455 184 452 z"},"y":{"x_min":0,"x_max":435,"ha":435,"o":"m 437 456 q 437 451 436 447 q 435 442 434 439 q 417 395 398 347 q 379 298 354 245 q 328 192 293 133 q 258 74 208 8 l 77 -166 q 75 -168 72 -171 q 69 -173 64 -175 q 60 -176 54 -177 q 47 -178 39 -178 q 30 -178 24 -177 q 18 -176 14 -174 q 11 -171 11 -167 q 11 -163 16 -157 l 140 0 l 67 435 q 66 440 65 444 q 65 448 65 451 q 65 455 66 457 q 67 460 71 461 q 74 463 79 464 q 85 464 93 464 q 103 464 108 464 q 113 463 116 461 q 120 460 121 457 q 123 455 123 452 l 187 63 l 188 63 q 221 110 248 157 q 275 205 298 253 q 320 302 339 351 q 358 401 375 452 q 376 455 379 458 q 381 460 385 461 q 389 463 395 464 q 401 464 410 464 q 427 464 432 462 q 437 459 437 456 z"},"@":{"x_min":0,"x_max":892,"ha":892,"o":"m 816 418 q 816 392 812 357 q 807 322 797 285 q 786 248 769 211 q 752 175 728 147 q 704 119 672 101 q 640 84 599 84 q 578 84 561 90 q 543 96 532 108 q 521 119 516 136 q 511 153 514 175 q 499 153 480 136 q 460 119 440 107 q 420 96 400 90 q 380 84 363 84 q 346 84 332 87 q 318 91 308 97 q 297 104 290 113 q 282 123 277 135 q 272 148 270 163 q 267 179 267 197 q 267 222 272 252 q 278 282 289 312 q 300 342 317 370 q 334 398 358 420 q 381 442 411 456 q 440 469 477 469 q 493 469 507 465 q 521 461 533 453 q 545 445 556 433 q 567 421 577 406 l 591 452 q 593 458 599 461 q 604 463 618 463 q 632 463 637 461 q 642 458 640 452 l 572 240 q 555 184 564 158 q 574 132 611 132 q 635 132 656 146 q 677 160 693 182 q 710 205 722 234 q 735 264 743 295 q 752 327 756 358 q 760 389 760 416 q 760 450 750 482 q 741 514 716 539 q 691 564 649 580 q 606 595 542 595 q 476 595 423 579 q 371 562 331 536 q 291 509 262 473 q 233 438 212 399 q 192 361 179 322 q 167 283 159 248 q 152 213 150 185 q 147 157 147 141 q 147 117 151 92 q 154 67 164 44 q 174 21 191 1 q 208 -19 236 -34 q 264 -49 304 -57 q 344 -66 398 -66 q 434 -66 463 -62 q 491 -58 512 -53 q 533 -48 545 -44 q 558 -40 561 -40 q 565 -40 567 -43 q 568 -46 568 -53 q 568 -59 568 -63 q 567 -68 565 -73 q 564 -78 562 -81 q 560 -85 557 -88 q 554 -91 540 -96 q 526 -101 503 -105 q 481 -109 451 -113 q 421 -116 386 -116 q 326 -116 281 -106 q 236 -96 203 -78 q 170 -61 149 -37 q 127 -13 115 14 q 102 42 96 72 q 91 102 91 132 q 91 150 94 182 q 97 213 105 253 q 113 292 128 336 q 143 380 166 424 q 190 467 224 507 q 258 547 304 577 q 351 607 412 625 q 473 644 550 644 q 622 644 672 626 q 723 609 755 579 q 787 549 802 508 q 816 467 816 418 z m 552 350 q 536 384 517 402 q 498 420 471 420 q 447 420 427 409 q 407 398 390 380 q 374 362 362 339 q 349 315 341 292 q 332 268 328 244 q 323 221 323 203 q 323 167 336 151 q 349 135 376 135 q 395 135 418 147 q 441 159 464 180 q 486 202 505 230 q 523 258 533 291 z m 0 632 z"},".":{"x_min":0,"x_max":245,"ha":245,"o":"m 128 62 q 128 56 127 48 q 126 40 125 32 q 123 24 119 17 q 116 10 112 6 q 107 1 98 -1 q 90 -3 77 -3 q 66 -3 59 -2 q 52 0 48 4 q 44 7 43 12 q 42 18 42 24 q 42 32 43 40 q 44 48 46 56 q 48 64 51 70 q 54 77 59 81 q 63 85 71 88 q 78 90 93 90 q 104 90 111 88 q 118 86 122 83 q 126 79 127 74 q 128 69 128 62 z"},"p":{"x_min":0,"x_max":507,"ha":507,"o":"m 463 315 q 463 288 458 253 q 453 219 442 183 q 431 147 413 113 q 395 78 369 51 q 344 24 310 8 q 276 -8 233 -8 q 210 -8 192 -4 q 173 1 157 9 q 142 18 128 29 q 115 40 104 53 l 61 -166 q 60 -168 58 -171 q 57 -173 53 -175 q 50 -177 44 -177 q 39 -178 30 -178 q 21 -178 16 -177 q 11 -177 8 -175 q 4 -173 3 -171 q 2 -168 3 -166 l 127 452 q 128 458 134 461 q 141 464 156 464 q 163 464 168 464 q 172 463 175 461 q 178 460 179 458 q 180 455 179 452 l 161 361 q 167 377 184 396 q 201 416 224 432 q 247 448 275 459 q 304 470 333 470 q 370 470 395 458 q 419 445 435 425 q 450 404 457 375 q 463 347 463 315 z m 402 312 q 402 335 398 355 q 394 375 385 389 q 375 404 361 412 q 346 420 324 420 q 295 420 265 404 q 235 388 210 360 q 184 332 164 292 q 144 253 135 206 l 117 117 q 143 79 173 60 q 202 42 239 42 q 268 42 291 55 q 314 69 333 91 q 351 114 364 142 q 377 171 385 201 q 394 231 398 260 q 402 290 402 312 z"},"X":{"x_min":0,"x_max":501,"ha":501,"o":"m 302 321 l 432 20 q 435 13 434 9 q 434 4 431 2 q 427 -1 420 -2 q 413 -3 402 -3 q 391 -3 385 -2 q 378 -1 375 0 q 371 1 370 4 q 368 6 367 10 l 261 276 l 53 10 q 50 6 47 4 q 44 1 40 0 q 36 -1 29 -2 q 22 -3 12 -3 q 1 -3 -6 -2 q -14 -1 -17 2 q -20 4 -19 9 q -18 13 -13 20 l 235 324 l 117 612 q 114 619 115 623 q 115 627 119 630 q 123 633 130 634 q 138 635 148 635 q 158 635 163 634 q 169 633 173 631 q 176 629 178 625 q 181 622 183 617 l 279 372 l 474 622 q 477 625 480 628 q 483 630 487 632 q 492 633 498 634 q 505 635 515 635 q 525 635 533 634 q 540 633 543 630 q 546 627 546 623 q 545 619 540 612 z"},"*":{"x_min":0,"x_max":498,"ha":498,"o":"m 475 601 q 482 584 481 576 q 479 567 474 565 l 345 510 l 449 453 q 454 450 453 444 q 452 438 441 423 q 428 406 422 403 q 416 400 411 404 l 317 477 l 301 347 q 301 340 294 337 q 288 334 270 334 q 250 334 244 337 q 238 340 240 347 l 277 477 l 159 404 q 151 398 145 402 q 139 406 133 422 q 126 439 128 447 q 129 456 135 458 l 265 514 l 163 567 q 159 569 157 571 q 155 574 156 577 q 156 581 159 586 q 162 591 167 599 q 174 608 179 613 q 184 618 187 620 q 191 622 194 621 q 198 620 201 617 l 291 546 l 306 676 q 307 683 313 686 q 320 689 338 689 q 358 689 365 686 q 371 683 369 676 l 331 546 l 453 621 q 458 625 464 621 q 469 617 475 601 z"},"Y":{"x_min":0,"x_max":469,"ha":469,"o":"m 269 249 l 221 10 q 220 7 218 4 q 216 2 212 0 q 208 -1 203 -2 q 197 -3 188 -3 q 180 -3 175 -2 q 169 -1 166 0 q 163 2 162 4 q 161 7 161 10 l 209 249 l 100 612 q 98 619 98 624 q 98 628 100 630 q 103 633 109 634 q 115 635 126 635 q 136 635 142 634 q 148 633 152 631 q 156 629 158 625 q 160 622 162 617 l 216 432 q 226 399 234 369 q 241 339 248 307 l 249 307 q 269 338 289 369 q 309 399 331 431 l 460 619 q 463 624 467 626 q 470 629 474 631 q 479 633 486 634 q 492 635 502 635 q 515 635 521 633 q 527 631 529 628 q 530 625 528 621 q 526 617 523 612 z"},"c":{"x_min":0,"x_max":418,"ha":418,"o":"m 416 407 q 416 400 414 394 q 413 387 411 381 q 408 375 404 372 q 400 369 396 369 q 389 369 382 376 q 374 384 361 394 q 348 403 328 411 q 308 419 277 419 q 243 419 216 405 q 190 391 171 369 q 151 347 138 318 q 125 290 118 261 q 110 232 106 205 q 103 178 103 158 q 103 101 127 72 q 152 43 199 43 q 233 43 257 52 q 282 61 299 71 q 315 82 326 90 q 337 99 344 99 q 348 99 350 95 q 352 92 352 86 q 352 82 351 76 q 351 70 349 64 q 348 58 345 52 q 343 47 337 41 q 331 35 316 26 q 301 17 282 9 q 262 1 239 -3 q 216 -8 192 -8 q 116 -8 79 31 q 42 69 42 146 q 42 176 47 212 q 52 247 63 283 q 75 319 94 353 q 112 386 139 412 q 166 438 202 454 q 237 470 283 470 q 302 470 320 467 q 338 463 354 458 q 370 452 384 444 q 397 435 405 428 q 412 421 414 417 q 416 413 416 407 z"},"!":{"x_min":0,"x_max":326,"ha":326,"o":"m 195 168 q 195 166 193 163 q 191 161 187 159 q 184 157 178 156 q 173 156 166 156 q 158 156 153 156 q 148 157 146 159 q 144 161 143 163 q 142 166 143 168 l 232 646 q 233 653 236 657 q 238 661 243 664 q 247 666 253 667 q 260 668 269 668 q 279 668 285 667 q 291 666 294 663 q 297 661 298 656 q 298 652 297 646 z m 188 66 q 188 60 187 52 q 186 43 184 35 q 182 27 178 20 q 175 12 171 8 q 165 2 156 -1 q 147 -3 134 -3 q 124 -3 117 -2 q 110 0 106 2 q 103 5 101 10 q 100 15 100 21 q 100 26 101 34 q 102 42 104 51 q 106 60 109 67 q 112 75 117 80 q 123 86 131 88 q 139 90 153 90 q 164 90 171 89 q 178 87 182 84 q 186 81 187 76 q 188 71 188 66 z"},"/":{"x_min":0,"x_max":362,"ha":362,"o":"m -6 -113 q -10 -119 -13 -123 q -17 -126 -22 -128 q -26 -130 -32 -131 q -37 -131 -44 -131 q -54 -131 -59 -130 q -65 -128 -67 -126 q -70 -123 -69 -119 q -69 -115 -66 -109 l 393 695 q 396 701 400 705 q 403 708 408 710 q 412 712 418 713 q 424 713 431 713 q 439 713 445 712 q 451 710 453 708 q 456 705 456 701 q 456 697 453 691 z"},"[":{"x_min":0,"x_max":297,"ha":297,"o":"m 339 667 q 339 665 339 661 q 338 658 338 654 q 337 651 335 647 q 334 644 332 641 q 330 638 327 636 q 325 635 321 635 l 239 635 l 90 -108 l 173 -108 q 178 -108 180 -111 q 182 -115 182 -120 q 182 -123 182 -126 q 181 -129 180 -133 q 179 -137 178 -140 q 176 -144 174 -146 q 172 -149 170 -150 q 167 -152 164 -152 l 53 -152 q 49 -152 44 -150 q 40 -149 37 -146 q 34 -142 32 -136 q 31 -130 33 -121 l 187 648 q 190 666 200 672 q 211 679 220 679 l 331 679 q 339 679 339 667 z"},"6":{"x_min":0,"x_max":507,"ha":507,"o":"m 461 246 q 461 217 455 187 q 448 157 435 129 q 422 101 403 76 q 383 51 355 32 q 328 13 292 2 q 257 -8 214 -8 q 171 -8 142 5 q 112 18 94 41 q 75 64 66 95 q 58 126 58 163 q 58 183 61 214 q 63 245 69 282 q 76 320 87 361 q 98 401 116 441 q 134 480 159 517 q 184 553 217 580 q 251 607 295 623 q 338 639 393 639 q 423 639 447 635 q 472 630 489 623 q 500 618 505 613 q 509 608 509 600 q 509 597 509 593 q 508 589 508 586 q 507 582 505 579 q 504 575 502 573 q 500 570 498 568 q 495 567 492 567 q 487 567 479 570 q 471 574 458 578 q 445 583 427 586 q 409 589 384 589 q 334 589 295 569 q 256 548 226 514 q 196 480 176 435 q 155 391 143 342 q 174 358 213 370 q 252 382 302 382 q 345 382 375 372 q 405 361 424 343 q 443 325 452 300 q 461 275 461 246 z m 398 241 q 398 261 393 278 q 387 295 374 308 q 361 320 341 326 q 320 333 291 333 q 270 333 249 330 q 227 326 207 320 q 186 313 167 305 q 148 297 132 287 q 125 252 123 223 q 120 193 120 169 q 120 102 147 72 q 174 42 226 42 q 254 42 279 51 q 303 60 322 74 q 341 89 355 109 q 370 128 379 150 q 389 172 394 196 q 398 219 398 241 z"},"r":{"x_min":0,"x_max":338,"ha":338,"o":"m 361 447 q 361 446 361 442 q 360 438 360 433 q 359 428 357 423 q 356 417 354 413 q 352 409 349 406 q 347 403 343 403 q 340 403 335 405 q 331 407 324 409 q 318 412 311 414 q 303 416 292 416 q 275 416 252 400 q 229 384 206 356 q 183 329 163 290 q 144 251 135 206 l 96 10 q 95 7 94 4 q 92 2 88 0 q 84 -1 79 -2 q 73 -3 64 -3 q 56 -3 50 -2 q 45 -1 42 0 q 39 2 38 4 q 37 7 38 10 l 126 452 q 126 455 128 457 q 130 459 134 461 q 138 463 143 464 q 148 464 156 464 q 163 464 168 464 q 173 463 176 461 q 178 459 179 457 q 180 455 179 452 l 162 366 q 173 386 188 405 q 204 423 222 438 q 241 452 261 461 q 281 470 301 470 q 310 470 319 469 q 328 467 336 466 q 344 464 350 461 q 355 459 358 456 q 361 454 361 447 z"},"2":{"x_min":0,"x_max":507,"ha":507,"o":"m 404 36 q 404 33 403 29 q 402 25 401 21 q 400 17 398 13 q 396 9 393 6 q 391 3 387 2 q 384 0 379 0 l 38 0 q 34 0 31 1 q 27 2 25 5 q 23 7 22 10 q 21 13 21 17 q 21 21 22 26 q 22 32 24 38 q 26 44 31 51 q 35 57 42 63 l 213 212 q 255 249 286 282 q 317 314 338 342 q 358 370 371 394 q 383 417 390 437 q 397 457 399 472 q 401 488 401 500 q 401 513 397 529 q 393 544 383 557 q 373 570 354 579 q 336 588 307 588 q 278 588 252 580 q 226 571 204 560 q 183 550 169 541 q 154 532 149 532 q 146 532 143 537 q 140 541 140 549 q 140 553 140 557 q 141 560 141 564 q 142 567 144 571 q 145 574 147 577 q 148 581 151 583 q 153 586 156 589 q 161 594 176 603 q 191 612 212 620 q 234 628 260 634 q 287 640 315 640 q 359 640 388 627 q 417 613 434 594 q 450 574 457 551 q 463 528 463 509 q 463 489 461 469 q 458 448 450 425 q 442 401 427 375 q 412 349 387 318 q 363 288 328 252 q 292 216 244 174 l 104 53 l 389 53 q 397 53 401 48 q 404 42 404 36 z"},"{":{"x_min":0,"x_max":299,"ha":299,"o":"m 356 666 q 356 660 355 655 q 354 649 352 645 q 349 641 345 638 q 341 635 336 635 l 320 635 q 307 635 296 630 q 286 626 277 613 q 269 601 261 578 q 254 555 247 519 l 228 422 q 223 395 214 369 q 206 344 193 324 q 181 304 163 291 q 145 277 121 272 q 137 269 148 259 q 159 249 165 235 q 170 222 173 207 q 175 192 175 180 q 175 167 173 153 q 172 140 169 127 l 143 -2 q 139 -24 137 -40 q 135 -56 135 -69 q 135 -91 143 -100 q 150 -108 165 -108 l 188 -108 q 194 -108 197 -112 q 199 -117 199 -122 q 199 -125 198 -129 q 198 -132 197 -135 q 195 -139 193 -142 q 191 -145 189 -147 q 188 -149 186 -150 q 184 -151 180 -152 q 177 -152 171 -153 q 166 -153 158 -153 q 135 -153 121 -147 q 106 -142 98 -132 q 89 -122 86 -107 q 83 -93 83 -75 q 83 -63 84 -43 q 86 -23 91 3 l 118 132 q 120 142 122 156 q 123 169 123 179 q 123 194 120 208 q 117 221 111 231 q 104 241 94 247 q 84 253 70 254 q 63 255 61 258 q 59 260 59 266 q 59 270 60 273 q 60 276 61 279 q 62 282 63 285 q 64 287 66 289 q 70 293 77 294 q 83 295 92 297 q 101 299 111 303 q 121 308 132 319 q 148 335 158 360 q 168 386 175 417 l 198 536 q 206 572 215 599 q 224 625 239 644 q 253 662 273 671 q 293 680 322 680 q 330 680 335 679 q 340 679 344 679 q 348 678 350 677 q 353 677 354 675 q 355 674 356 672 q 356 669 356 666 z"},"9":{"x_min":0,"x_max":507,"ha":507,"o":"m 82 386 q 82 415 88 445 q 94 475 107 503 q 120 531 140 556 q 160 581 187 600 q 215 619 250 629 q 285 640 329 640 q 371 640 401 627 q 430 614 449 591 q 468 568 476 537 q 484 505 484 469 q 484 449 482 418 q 480 387 474 349 q 467 312 456 271 q 445 230 427 190 q 409 150 383 115 q 357 79 323 51 q 288 24 242 8 q 197 -8 140 -8 q 125 -8 111 -7 q 97 -5 84 -3 q 72 0 61 3 q 49 6 41 9 q 29 14 25 19 q 21 23 21 32 q 21 35 21 39 q 21 42 22 46 q 23 50 24 53 q 26 57 28 59 q 29 62 32 63 q 35 65 38 65 q 43 65 52 62 q 61 58 74 54 q 87 49 106 46 q 125 42 149 42 q 202 42 243 62 q 283 83 313 116 q 344 150 365 195 q 385 240 398 290 q 368 274 329 262 q 290 250 240 250 q 197 250 167 260 q 137 271 118 289 q 99 307 90 332 q 82 356 82 386 z m 144 391 q 144 371 150 354 q 155 336 168 324 q 181 312 202 305 q 222 299 251 299 q 272 299 294 302 q 315 306 335 312 q 355 318 374 327 q 393 335 409 345 q 416 380 419 409 q 423 439 423 462 q 423 530 396 560 q 369 590 317 590 q 288 590 264 582 q 240 573 221 558 q 202 543 187 524 q 173 504 163 482 q 154 459 149 436 q 144 413 144 391 z"},"I":{"x_min":0,"x_max":244,"ha":244,"o":"m 108 10 q 108 7 106 4 q 104 2 100 0 q 96 -1 90 -2 q 84 -3 76 -3 q 67 -3 62 -2 q 56 -1 53 0 q 50 2 49 4 q 48 7 49 10 l 171 622 q 171 625 174 627 q 176 630 180 631 q 184 633 190 634 q 196 635 204 635 q 212 635 217 634 q 223 633 226 631 q 229 630 230 627 q 231 625 230 622 z"},"H":{"x_min":0,"x_max":619,"ha":619,"o":"m 483 10 q 482 7 480 4 q 479 2 475 0 q 471 -1 465 -2 q 459 -3 451 -3 q 442 -3 437 -2 q 431 -1 428 0 q 425 2 424 4 q 423 7 424 10 l 482 304 l 167 304 l 108 10 q 108 7 106 4 q 104 2 100 0 q 96 -1 90 -2 q 84 -3 76 -3 q 67 -3 62 -2 q 56 -1 53 0 q 50 2 49 4 q 48 7 49 10 l 171 622 q 171 625 174 627 q 176 630 180 631 q 184 633 189 634 q 195 635 204 635 q 212 635 218 634 q 223 633 226 631 q 229 630 230 627 q 231 625 230 622 l 178 357 l 493 357 l 546 622 q 546 625 549 627 q 551 630 554 631 q 558 633 564 634 q 570 635 579 635 q 587 635 593 634 q 598 633 601 631 q 604 630 605 627 q 606 625 605 622 z"},"4":{"x_min":0,"x_max":507,"ha":507,"o":"m 464 188 q 464 184 464 180 q 463 177 462 173 q 460 169 458 165 q 457 162 454 159 q 451 156 448 155 q 444 153 440 153 l 360 153 l 332 10 q 332 7 330 4 q 328 2 324 0 q 320 -1 314 -2 q 308 -3 300 -3 q 291 -3 286 -2 q 280 -1 277 0 q 274 2 273 4 q 272 7 273 10 l 301 153 l 30 153 q 21 153 19 157 q 16 161 16 167 q 16 170 16 174 q 16 178 17 182 q 18 186 19 190 q 21 195 22 199 q 24 204 27 208 q 29 212 33 216 l 358 621 q 361 625 366 627 q 371 630 377 632 q 383 633 391 634 q 399 635 410 635 q 421 635 430 634 q 438 633 444 631 q 450 629 452 626 q 455 624 455 620 l 371 204 l 451 204 q 458 204 461 199 q 464 194 464 188 z m 387 577 l 386 577 l 87 204 l 312 204 z"},"~":{"x_min":0,"x_max":498,"ha":498,"o":"m 518 514 q 518 488 509 463 q 500 438 484 418 q 467 398 443 386 q 419 374 388 374 q 358 374 338 383 q 318 392 304 406 q 290 419 280 436 q 269 452 258 465 q 247 479 233 488 q 219 497 197 497 q 178 497 165 489 q 151 481 142 469 q 133 456 128 439 q 124 422 122 405 q 122 396 115 394 q 108 392 96 392 q 81 392 77 395 q 73 397 73 404 q 73 430 80 455 q 87 480 103 500 q 119 520 144 532 q 169 544 205 544 q 234 544 254 535 q 274 526 288 512 q 303 499 313 483 q 324 467 335 454 q 347 440 360 431 q 374 422 394 422 q 412 422 426 429 q 439 437 448 449 q 458 462 462 479 q 467 496 468 515 q 469 522 475 524 q 482 527 494 527 q 501 527 506 526 q 510 525 513 524 q 516 522 517 520 q 518 518 518 514 z"},"D":{"x_min":0,"x_max":607,"ha":607,"o":"m 583 405 q 583 372 578 336 q 574 301 564 267 q 554 232 538 199 q 522 166 501 136 q 479 106 451 81 q 422 56 387 38 q 351 20 308 10 q 265 0 205 0 l 75 0 q 70 0 65 1 q 60 3 57 7 q 53 10 52 16 q 51 22 53 31 l 167 601 q 170 619 180 625 q 191 632 204 632 l 326 632 q 398 632 444 616 q 491 600 521 571 q 552 541 568 499 q 583 457 583 405 z m 520 402 q 520 440 509 473 q 498 505 474 529 q 451 552 416 565 q 380 579 321 579 l 222 579 l 117 53 l 215 53 q 279 53 322 69 q 365 84 397 110 q 430 137 453 172 q 477 207 491 245 q 506 284 513 324 q 520 364 520 402 z"},"^":{"x_min":0,"x_max":498,"ha":498,"o":"m 438 312 q 440 306 439 302 q 438 297 434 295 q 431 293 424 292 q 417 292 407 292 q 397 292 392 292 q 386 293 383 294 q 380 296 379 298 q 378 300 377 303 l 315 575 l 314 573 l 151 303 q 149 300 146 298 q 143 296 139 294 q 134 293 128 292 q 122 292 112 292 q 103 292 97 292 q 91 293 88 295 q 85 298 86 302 q 87 306 91 312 l 291 626 q 293 630 296 632 q 299 635 304 636 q 308 637 314 638 q 320 638 328 638 q 336 638 342 638 q 347 637 351 636 q 354 635 356 632 q 358 630 359 626 z"},"0":{"x_min":0,"x_max":507,"ha":507,"o":"m 500 452 q 500 432 498 402 q 496 372 490 336 q 484 300 474 262 q 464 223 450 186 q 436 148 416 115 q 396 81 371 55 q 342 26 303 9 q 263 -8 211 -8 q 167 -8 135 4 q 103 16 82 40 q 61 64 51 99 q 42 134 42 180 q 42 200 44 230 q 46 260 52 296 q 58 332 68 370 q 78 409 92 446 q 106 483 126 517 q 146 551 171 577 q 186 592 204 604 q 222 616 242 624 q 262 632 285 636 q 307 640 332 640 q 376 640 408 628 q 440 616 460 592 q 481 568 491 533 q 500 498 500 452 z m 438 451 q 438 521 411 555 q 384 589 326 589 q 292 589 265 578 q 238 566 215 544 q 193 522 177 492 q 160 461 148 427 q 135 393 127 357 q 119 321 114 288 q 108 255 106 227 q 104 199 104 181 q 104 111 131 77 q 159 42 216 42 q 250 42 278 54 q 305 66 327 88 q 348 109 365 140 q 382 170 394 205 q 407 239 415 275 q 423 311 428 344 q 434 377 436 405 q 438 433 438 451 z"},"F":{"x_min":0,"x_max":460,"ha":460,"o":"m 488 617 q 488 615 488 611 q 488 607 487 603 q 486 599 484 595 q 483 590 480 587 q 478 583 475 581 q 471 579 467 579 l 222 579 l 174 339 l 407 339 q 412 339 415 336 q 417 333 417 326 q 417 322 417 318 q 417 314 416 311 q 415 307 413 302 q 412 298 409 295 q 407 292 404 290 q 400 288 396 288 l 164 288 l 108 10 q 108 7 106 4 q 104 2 100 0 q 96 -1 90 -2 q 84 -3 76 -3 q 67 -3 62 -2 q 56 -1 53 0 q 50 2 49 4 q 48 7 49 10 l 167 601 q 170 619 181 625 q 192 632 201 632 l 478 632 q 484 632 486 628 q 488 624 488 617 z"},"`":{"x_min":0,"x_max":286,"ha":286,"o":"m 284 553 q 287 549 288 545 q 288 542 286 540 q 285 538 280 536 q 275 535 268 535 q 261 535 256 535 q 251 536 247 537 q 244 539 241 542 q 238 544 234 549 l 155 664 q 152 668 151 672 q 151 675 154 678 q 156 681 162 682 q 168 684 177 684 q 187 684 193 683 q 199 683 204 681 q 208 679 211 676 q 214 672 217 667 z"},"k":{"x_min":0,"x_max":441,"ha":441,"o":"m 444 453 q 444 448 441 444 q 438 439 428 431 l 217 257 l 366 30 q 371 23 372 18 q 374 14 374 11 q 374 7 373 5 q 371 2 367 1 q 364 -1 358 -2 q 352 -3 342 -3 q 333 -3 327 -2 q 321 -1 317 0 q 313 1 311 4 q 309 6 307 10 l 146 261 l 96 10 q 95 7 94 4 q 92 2 88 0 q 84 -1 79 -2 q 73 -3 64 -3 q 56 -3 50 -2 q 45 -1 42 0 q 39 2 38 4 q 37 7 38 10 l 169 668 q 170 671 172 673 q 173 676 177 677 q 181 679 187 680 q 192 681 201 681 q 209 681 215 680 q 220 679 223 677 q 226 676 227 673 q 228 671 227 668 l 146 262 l 371 452 q 375 455 379 458 q 383 460 388 461 q 394 463 400 464 q 406 464 415 464 q 423 464 429 464 q 435 463 438 461 q 441 460 443 458 q 444 456 444 453 z"},"u":{"x_min":0,"x_max":507,"ha":507,"o":"m 382 10 q 381 7 380 4 q 378 2 375 0 q 371 -1 366 -2 q 360 -3 353 -3 q 346 -3 341 -2 q 336 -1 333 0 q 331 2 330 4 q 329 7 330 10 l 347 99 q 340 83 324 64 q 307 45 284 29 q 261 13 233 2 q 206 -8 177 -8 q 145 -8 122 0 q 100 9 87 25 q 73 40 67 61 q 62 83 62 108 q 62 124 63 140 q 65 157 69 174 l 124 452 q 125 455 126 457 q 128 459 132 461 q 136 463 142 464 q 147 464 156 464 q 164 464 169 464 q 175 463 178 461 q 181 459 182 457 q 183 455 182 452 l 127 174 q 124 160 122 145 q 121 130 121 114 q 121 98 124 85 q 127 71 135 61 q 142 51 154 46 q 166 41 184 41 q 213 41 243 56 q 272 72 298 101 q 324 129 344 168 q 363 208 373 254 l 413 452 q 413 455 415 457 q 417 459 421 461 q 424 463 430 464 q 436 464 444 464 q 453 464 458 464 q 464 463 467 461 q 470 459 470 457 q 471 455 471 452 z"},"]":{"x_min":0,"x_max":297,"ha":297,"o":"m 125 -121 q 122 -139 111 -146 q 100 -152 91 -152 l -19 -152 q -23 -152 -25 -149 q -28 -146 -28 -140 q -28 -137 -27 -134 q -27 -130 -26 -127 q -25 -124 -24 -120 q -22 -117 -21 -114 q -19 -111 -16 -110 q -13 -108 -10 -108 l 72 -108 l 221 635 l 139 635 q 134 635 132 637 q 129 640 129 646 q 129 648 130 652 q 130 655 131 659 q 131 663 133 666 q 134 670 136 673 q 138 675 141 677 q 144 679 147 679 l 258 679 q 262 679 267 677 q 271 676 274 672 q 278 669 279 663 q 280 657 279 648 z"},"U":{"x_min":0,"x_max":636,"ha":636,"o":"m 545 228 q 533 169 508 125 q 483 81 448 51 q 412 21 368 7 q 324 -8 274 -8 q 222 -8 183 7 q 144 22 119 52 q 95 82 87 127 q 80 171 91 230 l 169 622 q 170 625 172 627 q 174 630 178 631 q 182 633 188 634 q 193 635 202 635 q 210 635 216 634 q 222 633 225 631 q 228 630 229 627 q 229 625 229 622 l 151 232 q 142 186 146 151 q 150 116 166 92 q 183 69 212 57 q 241 45 282 45 q 321 45 355 57 q 388 69 414 93 q 440 117 459 152 q 477 187 486 232 l 564 622 q 564 625 566 627 q 568 630 572 631 q 576 633 582 634 q 587 635 596 635 q 604 635 610 634 q 615 633 619 631 q 622 630 623 627 q 624 625 624 622 z"},"o":{"x_min":0,"x_max":506,"ha":506,"o":"m 464 306 q 464 270 458 232 q 451 194 437 159 q 423 125 402 94 q 381 63 353 41 q 325 18 290 5 q 254 -8 212 -8 q 167 -8 135 3 q 103 14 82 35 q 62 57 52 87 q 42 118 42 156 q 42 192 49 230 q 56 268 70 302 q 84 337 105 368 q 126 398 154 421 q 182 443 217 457 q 252 470 295 470 q 340 470 372 458 q 404 447 425 426 q 445 405 455 375 q 464 344 464 306 z m 403 303 q 403 330 397 352 q 391 373 378 388 q 364 403 343 411 q 321 419 291 419 q 258 419 232 408 q 206 397 185 378 q 165 359 149 334 q 134 309 124 280 q 114 250 109 219 q 104 188 104 158 q 104 131 110 110 q 116 88 129 73 q 143 59 164 51 q 186 42 216 42 q 249 42 275 53 q 301 64 322 83 q 342 103 358 128 q 373 153 383 182 q 393 211 398 242 q 403 273 403 303 z"},"N":{"x_min":0,"x_max":638,"ha":638,"o":"m 506 29 q 504 20 501 14 q 497 8 492 5 q 488 1 483 0 q 478 -2 474 -2 l 455 -2 q 444 -2 437 1 q 430 3 424 10 q 418 16 414 25 q 409 35 404 49 l 271 416 q 258 453 244 491 q 231 528 218 566 l 217 566 q 210 525 203 485 q 195 444 187 403 l 108 10 q 108 7 106 4 q 104 2 100 0 q 96 -1 90 -2 q 83 -3 75 -3 q 67 -3 61 -2 q 56 -1 53 0 q 50 2 49 4 q 48 7 49 10 l 167 601 q 170 619 181 625 q 191 632 200 632 l 224 632 q 233 632 240 630 q 247 628 252 623 q 258 618 262 609 q 267 600 272 586 l 406 214 q 419 180 431 145 q 444 111 456 76 l 457 76 q 465 119 474 165 q 482 211 491 253 l 565 620 q 565 623 567 625 q 569 628 573 630 q 577 631 582 632 q 588 633 597 633 q 604 633 610 632 q 616 631 619 630 q 623 628 624 625 q 625 623 625 620 z"},"+":{"x_min":0,"x_max":498,"ha":498,"o":"m 471 292 q 471 289 470 285 q 470 281 469 277 q 468 272 466 268 q 464 264 461 261 q 459 257 455 255 q 452 253 447 253 l 282 253 l 245 69 q 245 66 243 64 q 241 62 237 60 q 233 58 228 57 q 222 56 214 56 q 207 56 202 57 q 197 58 194 60 q 191 62 190 64 q 188 66 189 69 l 226 253 l 62 253 q 56 253 52 257 q 49 261 49 270 q 49 272 49 277 q 50 281 51 285 q 52 290 54 294 q 56 298 58 301 q 61 305 64 307 q 68 309 72 309 l 237 309 l 274 493 q 275 497 277 499 q 279 502 283 504 q 287 506 292 507 q 298 508 305 508 q 313 508 318 507 q 323 506 326 504 q 329 502 330 499 q 331 497 331 493 l 293 309 l 458 309 q 464 309 468 304 q 471 300 471 292 z"},"G":{"x_min":0,"x_max":627,"ha":627,"o":"m 615 562 q 615 560 615 556 q 614 552 613 548 q 612 544 611 540 q 609 536 607 533 q 605 530 603 528 q 601 526 598 526 q 591 526 579 535 q 566 544 546 556 q 525 567 496 577 q 466 586 424 586 q 380 586 340 573 q 301 559 267 535 q 234 512 207 479 q 181 446 162 408 q 143 369 133 326 q 123 283 123 238 q 123 192 136 157 q 150 121 175 97 q 200 73 236 60 q 271 48 315 48 q 349 48 387 56 q 425 64 458 82 l 500 285 l 338 285 q 333 285 330 289 q 327 292 327 299 q 327 302 327 306 q 328 311 329 315 q 330 319 332 323 q 333 328 336 331 q 339 334 342 336 q 345 338 349 338 l 543 338 q 555 338 561 330 q 566 321 563 308 l 516 70 q 514 61 510 56 q 507 51 504 47 q 500 43 483 34 q 466 25 440 16 q 414 7 380 0 q 346 -7 309 -7 q 248 -7 201 9 q 154 26 123 57 q 91 88 75 133 q 59 177 59 232 q 59 284 71 334 q 83 384 105 429 q 127 475 160 513 q 193 552 235 580 q 276 607 326 623 q 376 639 433 639 q 466 639 495 633 q 523 627 546 618 q 568 609 584 598 q 600 588 606 582 q 612 577 614 573 q 615 568 615 562 z"},"q":{"x_min":0,"x_max":507,"ha":507,"o":"m 347 -166 q 346 -168 344 -171 q 342 -173 339 -175 q 335 -177 329 -177 q 324 -178 315 -178 q 307 -178 301 -177 q 296 -177 293 -175 q 290 -173 289 -171 q 288 -168 289 -166 l 322 3 q 325 17 329 31 q 332 44 336 58 q 340 71 343 83 q 347 94 350 103 q 342 86 325 66 q 308 47 284 30 q 261 14 232 3 q 204 -8 175 -8 q 141 -8 116 3 q 91 14 75 34 q 60 54 52 83 q 44 111 44 146 q 44 171 49 205 q 54 239 65 275 q 76 311 94 346 q 111 381 137 408 q 163 436 197 453 q 230 470 274 470 q 320 470 351 452 q 381 434 406 404 l 417 452 q 418 458 425 461 q 432 464 446 464 q 454 464 458 464 q 463 463 466 461 q 469 459 469 457 q 470 455 470 452 z m 391 345 q 365 382 335 401 q 306 420 269 420 q 238 420 214 405 q 190 391 172 367 q 154 343 141 313 q 128 284 121 254 q 113 224 109 196 q 106 168 106 149 q 106 95 126 68 q 146 42 184 42 q 213 42 243 57 q 272 73 298 102 q 324 130 344 170 q 363 209 373 256 z"},"d":{"x_min":0,"x_max":507,"ha":507,"o":"m 382 10 q 381 3 375 0 q 368 -3 353 -3 q 346 -3 341 -2 q 336 -1 333 0 q 331 1 330 4 q 329 6 330 10 l 347 99 q 340 83 324 64 q 307 45 284 29 q 261 13 232 2 q 204 -8 175 -8 q 145 -8 124 0 q 103 8 88 21 q 74 34 65 51 q 57 67 52 85 q 47 103 46 119 q 44 136 44 149 q 44 176 50 210 q 55 245 66 280 q 78 315 95 350 q 113 384 139 410 q 165 437 198 453 q 232 470 274 470 q 297 470 316 465 q 335 460 351 451 q 366 443 379 431 q 393 419 404 406 l 456 666 q 456 668 458 671 q 459 673 463 675 q 466 676 472 677 q 478 678 486 678 q 495 678 500 677 q 506 676 509 675 q 512 673 513 671 q 514 668 513 666 z m 391 343 q 365 381 335 400 q 306 420 269 420 q 240 420 217 406 q 194 393 176 371 q 158 349 145 321 q 131 292 123 262 q 114 232 110 204 q 106 175 106 151 q 106 99 124 70 q 143 42 184 42 q 213 42 243 57 q 272 73 298 101 q 324 129 344 168 q 363 207 373 254 z"},"1":{"x_min":0,"x_max":507,"ha":507,"o":"m 408 34 q 408 31 408 28 q 407 24 406 20 q 405 16 404 13 q 402 9 399 6 q 397 3 394 2 q 391 0 387 0 l 66 0 q 61 0 57 4 q 53 9 53 16 q 53 18 54 21 q 54 25 55 29 q 57 32 58 36 q 60 40 62 43 q 65 46 68 48 q 72 50 76 50 l 216 50 l 319 564 l 168 482 q 162 479 158 478 q 153 477 151 478 q 148 479 147 483 q 146 486 146 492 q 146 497 146 502 q 147 508 150 514 q 152 520 156 525 q 160 531 166 534 l 336 631 q 338 632 341 633 q 343 634 346 635 q 350 635 354 635 q 358 636 363 636 q 372 636 377 635 q 383 634 386 632 q 389 631 390 628 q 391 626 390 623 l 276 50 l 396 50 q 403 50 406 45 q 408 41 408 34 z"},"5":{"x_min":0,"x_max":507,"ha":507,"o":"m 438 240 q 438 208 431 178 q 423 147 409 120 q 394 92 372 69 q 349 45 319 28 q 289 11 251 1 q 213 -8 167 -8 q 146 -8 125 -5 q 105 -2 87 2 q 70 7 55 13 q 40 19 29 24 q 21 28 19 33 q 16 38 16 44 q 16 47 16 51 q 16 55 17 59 q 18 63 19 68 q 21 72 22 75 q 24 79 27 81 q 30 83 34 83 q 39 83 49 77 q 59 71 75 63 q 92 56 117 50 q 142 43 176 43 q 226 43 264 60 q 301 76 326 103 q 351 130 363 165 q 375 200 375 237 q 375 257 368 274 q 361 291 344 304 q 328 317 300 324 q 273 332 232 332 q 196 332 172 328 q 148 325 130 325 q 118 325 113 331 q 109 337 112 355 l 162 603 q 165 617 174 624 q 183 632 195 632 l 464 632 q 471 632 475 628 q 478 624 478 616 q 478 613 478 609 q 477 605 476 601 q 475 597 473 593 q 471 589 469 586 q 466 583 462 581 q 458 579 454 579 l 212 579 l 172 378 q 189 380 205 382 q 220 383 240 383 q 295 383 333 371 q 371 359 394 340 q 417 320 428 294 q 438 268 438 240 z"}," ":{"x_min":0,"x_max":0,"ha":226,"o":""}}}
